<?xml version="1.0" encoding="UTF-8"?>
<svg width="43px" height="48px" viewBox="0 0 43 48" version="1.1" xmlns="http://www.w3.org/2000/svg" xmlns:xlink="http://www.w3.org/1999/xlink">
  <g id="Full-page" stroke="none" stroke-width="1" fill="none" fill-rule="evenodd">
    <g id="asam." transform="translate(-924.000000, -12533.000000)" fill-rule="nonzero" fill="currentColor">
      <g id="Carrers" transform="translate(375.000000, 11983.000000)">
        <g id="02" transform="translate(549.000000, 550.000000)">
          <g id="alarm-clock">
            <path d="M25.8975439,22.429193 C25.4826667,22.0147836 24.810386,22.0147836 24.3957895,22.4292865 L22.4022456,24.4228304 C22.1274386,24.3209357 21.8305497,24.2649825 21.520655,24.2649825 C21.2105731,24.2649825 20.9134035,24.3210292 20.6384094,24.4232047 L16.5408187,20.3254269 C16.1262222,19.9110175 15.4539415,19.9110175 15.0394386,20.3254269 C14.6248421,20.7400234 14.6247485,21.4123041 15.0394386,21.8269942 L19.1374035,25.9250526 C19.0355088,26.1996725 18.9796491,26.4965614 18.9796491,26.806269 C18.9796491,28.2074386 20.1195789,29.347462 21.5208421,29.347462 C22.9221053,29.347462 24.0620351,28.2075322 24.0620351,26.806269 C24.0620351,26.4963743 24.0060819,26.1992982 23.9040936,25.9243041 L25.8976374,23.9307602 C26.3121404,23.5161637 26.3121404,22.843883 25.8975439,22.429193 Z M21.520655,27.4362573 C21.1731462,27.4362573 20.8904795,27.1534971 20.8904795,26.8060819 C20.8904795,26.4586667 21.1732398,26.1759064 21.520655,26.1759064 C21.8681637,26.1759064 22.1508304,26.4586667 22.1508304,26.8060819 C22.1507368,27.1535906 21.8680702,27.4362573 21.520655,27.4362573 Z" id="Shape"></path>
            <path d="M34.0546433,10.709614 L35.2575439,8.9917193 L40.0800936,12.3685614 C40.2597427,12.4945029 40.4727018,12.560655 40.6890292,12.560655 C40.7504094,12.560655 40.8120702,12.5553216 40.8733567,12.5445614 C41.1506901,12.4957193 41.3971462,12.3387135 41.5586433,12.1079766 C43.9926082,8.63185965 43.1447953,3.82353216 39.6687719,1.38938012 C36.192655,-1.04495906 31.3841404,-0.196865497 28.9503626,3.27925146 C28.6139883,3.75953216 28.7308538,4.42152047 29.2110409,4.75780117 L33.5183158,7.77384795 L32.3151345,9.49221053 C29.1817544,7.53160234 25.4815439,6.39625731 21.520655,6.39625731 C17.5597661,6.39625731 13.8596491,7.53160234 10.7261754,9.49221053 L9.52290058,7.77384795 L13.8301754,4.75780117 C14.3104561,4.4214269 14.4272281,3.75953216 14.0909474,3.27925146 C11.6569825,-0.196959064 6.84865497,-1.04477193 3.37244444,1.38928655 C-0.103672515,3.82325146 -0.951578947,8.63157895 1.48238596,12.1077895 C1.64388304,12.3385263 1.89043275,12.4955322 2.16767251,12.5443743 C2.22895906,12.5553216 2.29061988,12.5604678 2.352,12.5604678 C2.56832749,12.5604678 2.78138012,12.4942222 2.96093567,12.3683743 L7.78348538,8.99153216 L8.98638596,10.7094269 C4.19649123,14.4479064 1.11064327,20.2731228 1.11064327,26.8061754 C1.11064327,33.9106433 4.76014035,40.1778713 10.2821053,43.8344795 L8.60070175,46.2357895 C8.26432749,46.7159766 8.38119298,47.3780585 8.86138012,47.7143392 C9.04673684,47.8442105 9.25904094,47.9065263 9.46938012,47.9065263 C9.80397661,47.9065263 10.1334269,47.7486784 10.3399298,47.4536608 L12.1163977,44.9165848 C14.9324912,46.3847485 18.1309942,47.2163743 21.5204678,47.2163743 C24.9095673,47.2163743 28.1077895,46.3849357 30.9236023,44.9171462 L32.6996959,47.4537544 C32.9061988,47.7486784 33.2356491,47.9067135 33.5702456,47.9067135 C33.7804912,47.9067135 33.9929825,47.8443977 34.1782456,47.7145263 C34.6585263,47.378152 34.7752047,46.7162573 34.438924,46.2359766 L32.7579883,43.8353216 C38.2804211,40.178807 41.9302924,33.9112982 41.9302924,26.8064561 C41.9305731,20.2731228 38.8448187,14.4479064 34.0546433,10.709614 Z M31.3817076,3.6857076 C33.2612865,1.86816374 36.2312047,1.57445614 38.4509942,3.12851462 C40.6707836,4.68294737 41.4104327,7.57426901 40.3453567,9.9620117 L31.3817076,3.6857076 Z M2.69604678,9.96210526 C1.63087719,7.57436257 2.37052632,4.68294737 4.59040936,3.12860819 C5.56116959,2.44893567 6.67508772,2.12266667 7.77890058,2.12266667 C9.19897076,2.12266667 10.6021053,2.66301754 11.6596023,3.68580117 L2.69604678,9.96210526 Z M21.520655,45.0928655 C11.4372865,45.0928655 3.23396491,36.8895439 3.23396491,26.8061754 C3.23396491,16.722807 11.4372865,8.51957895 21.520655,8.51957895 C31.6040234,8.51957895 39.807345,16.7229006 39.807345,26.8061754 C39.807345,36.8894503 31.6039298,45.0928655 21.520655,45.0928655 Z" id="Shape"></path>
            <path d="M21.520655,11.7960234 C13.2440702,11.7960234 6.51050292,18.5295906 6.51050292,26.8061754 C6.51050292,35.0827602 13.2440702,41.8163275 21.520655,41.8163275 C29.7972398,41.8163275 36.5307135,35.0827602 36.5307135,26.8061754 C36.5307135,18.5295906 29.7972398,11.7960234 21.520655,11.7960234 Z M31.4986667,35.2827135 L30.7812865,34.5654269 C30.3666901,34.150924 29.6944094,34.150924 29.2799064,34.5654269 C28.8653099,34.9800234 28.8653099,35.6523041 29.2799064,36.066807 L29.997193,36.7841871 C27.963883,38.514152 25.3975205,39.6351813 22.5823626,39.8620819 L22.5823626,38.841076 C22.5823626,38.2547836 22.1070409,37.7793684 21.520655,37.7793684 C20.934269,37.7793684 20.4589474,38.2547836 20.4589474,38.841076 L20.4589474,39.8620819 C17.6436959,39.6351813 15.0774269,38.514152 13.0440234,36.7841871 L13.7614035,36.066807 C14.176,35.6522105 14.176,34.9799298 13.7614035,34.5654269 C13.346807,34.150924 12.6745263,34.150924 12.2598363,34.5654269 L11.5424561,35.282807 C9.81249123,33.2494971 8.69146199,30.6831345 8.4645614,27.867883 L9.48556725,27.867883 C10.0719532,27.867883 10.5472749,27.3925614 10.5472749,26.8061754 C10.5472749,26.2197895 10.0719532,25.7444678 9.48556725,25.7444678 L8.4645614,25.7444678 C8.69146199,22.9292164 9.81249123,20.3629474 11.5424561,18.3295439 L12.2598363,19.046924 C12.4671813,19.2541754 12.7389006,19.357848 13.0105263,19.357848 C13.282152,19.357848 13.5539649,19.2540819 13.7612164,19.046924 C14.1758129,18.6323275 14.1758129,17.9600468 13.7612164,17.5453567 L13.0438363,16.8279766 C15.0771462,15.0980117 17.6435088,13.9769825 20.4587602,13.7500819 L20.4587602,14.7711813 C20.4587602,15.3574737 20.9340819,15.8328889 21.5204678,15.8328889 C22.1068538,15.8328889 22.5821754,15.3574737 22.5821754,14.7711813 L22.5821754,13.7500819 C25.3974269,13.9769825 27.9636959,15.0980117 29.9970058,16.8279766 L29.2797193,17.5453567 C28.8651228,17.9599532 28.8651228,18.6322339 29.2797193,19.046924 C29.4870643,19.2541754 29.7587836,19.357848 30.0304094,19.357848 C30.3020351,19.357848 30.573848,19.2540819 30.7810994,19.046924 L31.4984795,18.3296374 C33.2284444,20.3629474 34.3493801,22.9292164 34.5762807,25.7444678 L33.5552749,25.7444678 C32.9688889,25.7444678 32.4935673,26.2197895 32.4935673,26.8061754 C32.4935673,27.3925614 32.969076,27.867883 33.5553684,27.867883 L34.5763743,27.867883 C34.3496608,30.6831345 33.2286316,33.2494035 31.4986667,35.2827135 Z" id="Shape"></path>
          </g>
        </g>
      </g>
    </g>
  </g>
</svg>
