<?xml version="1.0" encoding="UTF-8"?>
<svg width="48px" height="48px" viewBox="0 0 48 48" version="1.1" xmlns="http://www.w3.org/2000/svg" xmlns:xlink="http://www.w3.org/1999/xlink">
  <g id="Full-page" stroke="none" stroke-width="1" fill="none" fill-rule="evenodd">
    <g id="asam." transform="translate(-921.000000, -12443.000000)" fill-rule="nonzero" fill="currentColor">
      <g id="Carrers" transform="translate(375.000000, 11983.000000)">
        <g id="01" transform="translate(546.000000, 460.000000)">
          <g id="planet-earth">
            <path d="M40.9705313,7.02946875 C36.437625,2.49646875 30.410625,0 24,0 C17.589375,0 11.5624688,2.49646875 7.02946875,7.02946875 C2.49646875,11.5624688 0,17.589375 0,24 C0,30.410625 2.49646875,36.4375313 7.02946875,40.9705313 C11.5624688,45.5035312 17.589375,48 24,48 C30.410625,48 36.437625,45.5035312 40.9705313,40.9705313 C45.5035312,36.4375312 48,30.410625 48,24 C48,17.589375 45.5035312,11.5624688 40.9705313,7.02946875 Z M35.248125,10.3154062 L36.3031875,5.93240625 C40.5044063,8.80228125 43.6577813,13.0973438 45.0615938,18.1159688 L44.5089375,18.2222812 C43.6836563,18.381 43.0194375,19.010625 42.817125,19.8265312 L42.6027188,20.6907187 C42.600375,20.7004687 42.5987813,20.7068437 42.583125,20.712375 C42.5676563,20.7179062 42.5623125,20.7139687 42.55425,20.7079687 L41.2737188,19.7476875 C40.6099688,19.249875 39.7062188,19.1768437 38.9714063,19.5616875 L37.3733438,20.3983125 C36.6069375,20.7995625 36.163875,21.5852812 36.217125,22.4489062 C36.270375,23.3124375 36.8065313,24.0377812 37.6168125,24.342 L37.6925625,24.3704062 C37.7012813,24.3736875 37.70775,24.3760312 37.7116875,24.3917812 C37.715625,24.4073437 37.7112188,24.4125 37.7049375,24.419625 L36.7095,25.5644062 C36.6994688,25.5758438 36.6822188,25.5784687 36.6692813,25.5700313 L33.9861563,23.8388437 C33.370875,23.4418125 32.6039063,23.382 31.9347188,23.6792812 C31.2655313,23.9764687 30.7952813,24.5851875 30.6771563,25.3077188 L30.4701563,26.5726875 C30.3531563,27.2866875 30.5987813,28.0081875 31.12725,28.502625 L32.5265625,29.8120312 C32.537625,29.8223438 32.5395938,29.8390313 32.53125,29.8515938 L30.2506875,33.308625 C30.03375,33.6375938 29.9105625,34.0198125 29.8947188,34.4138437 L29.6968125,39.3631875 C29.6965313,39.3709688 29.69325,39.378375 29.6875313,39.3839063 L26.6505,42.36075 C26.6404688,42.3705938 26.625,42.3724687 26.6130938,42.3654375 L24.6437813,41.2118437 C24.6362813,41.2074375 24.6309375,41.200125 24.6291563,41.1917813 C24.6291563,41.1917813 23.67375,36.8564062 23.6380313,36.7603125 L22.7694375,34.4289375 C22.4791875,33.6500625 21.75675,33.1003125 20.9289375,33.0284063 L16.95375,32.6826562 C16.9437188,32.6818125 16.9347188,32.6761875 16.9296563,32.6672813 L14.6682188,28.768125 C14.6646563,28.7620312 14.6634375,28.7548125 14.664375,28.7479688 L15.2331563,24.966375 C15.234375,24.9583125 15.2385938,24.9510938 15.2450625,24.9462188 L18.7172813,22.326375 C18.7260938,22.3197188 18.7377188,22.3184063 18.7479375,22.3225313 L22.1124375,23.7261563 C22.3039688,23.8059375 22.505625,23.8577813 22.7115938,23.8801875 L27.3715313,24.3867188 C27.9027188,24.4444688 28.4326875,24.304875 28.8662813,23.9940938 L31.9536563,21.781125 C32.7854063,21.1849688 33.08625,20.0740313 32.6689688,19.1395313 L32.3825625,18.4984688 C32.0502188,17.7544688 31.3382813,17.264625 30.5248125,17.2201875 L21.8541563,16.7454375 C21.8494688,16.7451563 21.8447813,16.74375 21.8406563,16.7414063 C21.8318438,16.7364375 21.8271563,16.7324063 21.8266875,16.7324063 L21.8266875,16.7325 C21.8224688,16.72275 21.8256563,16.6980938 21.830625,16.69125 C21.8319375,16.6904063 21.837375,16.6875938 21.8479688,16.6845938 L24.4510313,15.9829688 C24.795375,15.8901563 25.1143125,15.7118438 25.3733438,15.4673438 L28.5567188,12.4633125 C28.5615,12.4587188 28.567875,12.4558125 28.574625,12.4550625 L33.365625,11.9616563 C34.2771563,11.8679062 35.033625,11.2064062 35.248125,10.3154062 Z M19.0198125,8.554125 L20.8108125,5.1830625 C21.0754687,4.68478125 21.1589062,4.10596875 21.0454687,3.5533125 L20.8022812,2.36784375 C21.846375,2.21409375 22.9138125,2.133375 23.9999062,2.133375 C25.0952812,2.133375 26.1718125,2.21540625 27.2244375,2.37159375 C27.2244375,2.37159375 26.9678437,2.65209375 26.9235,2.6698125 L24.3869062,3.68728125 C24.0244687,3.83278125 23.6985937,4.0665 23.4445312,4.3633125 L19.4923125,8.98275 C19.4385937,9.0455625 19.3604062,9.08353125 19.2777187,9.08709375 C19.1521875,9.092625 19.0746562,9.02334375 19.038375,8.98303125 C18.8978437,8.82665625 19.006125,8.5801875 19.0198125,8.554125 Z M9.696,7.4735625 L9.696,10.6740938 C9.696,11.568 9.24796875,12.3914063 8.49815625,12.8777813 L6.2015625,14.3680312 C5.66934375,14.7135938 5.218125,15.154125 4.86075,15.6779063 L2.7763125,18.7322812 C3.87890625,14.2910625 6.34134375,10.381125 9.696,7.4735625 Z M11.0901562,38.9610937 L10.788,41.411625 C7.36875,38.8108125 4.7353125,35.2280625 3.31284375,31.0869375 L4.67090625,31.0869375 C4.8373125,31.0869375 4.990875,31.1712187 5.0805,31.3109062 L7.82503125,35.5872187 C7.94878125,35.7792187 8.09596875,35.9541562 8.26453125,36.1077187 L10.9344375,38.542875 C11.0506875,38.6485312 11.109375,38.805375 11.0901562,38.9610937 Z M24,45.866625 C19.8975938,45.866625 16.056,44.7300938 12.7718438,42.75675 L13.2075,39.222375 C13.311,38.3807813 12.9984375,37.5370312 12.3722813,36.966375 C12.3722813,36.966375 9.64378125,34.470375 9.62025,34.435125 L6.87571875,30.1589062 C6.39140625,29.40375 5.566875,28.9535625 4.67090625,28.9535625 L2.69934375,28.9535625 C2.32921875,27.3613125 2.13328125,25.7030625 2.13328125,24 C2.13328125,23.8160625 2.13571875,23.632875 2.14021875,23.4500625 L6.622875,16.8810937 C6.82021875,16.5909375 7.06875,16.34775 7.363125,16.156875 L9.65859375,14.6678437 C11.0175,13.7867812 11.8292812,12.2934375 11.8292812,10.6742812 L11.8292812,5.842125 C13.900125,4.4495625 16.2212813,3.40246875 18.7095,2.78184375 L18.9556875,3.9819375 C18.9695625,4.04990625 18.9593437,4.1210625 18.9268125,4.1821875 L17.136,7.55315625 C17.0240625,7.763625 16.8790312,8.317125 16.8790312,8.317125 C16.733625,9.05325 16.9303125,9.802125 17.41875,10.37175 C17.8845,10.9150313 18.5518125,11.2208438 19.2628125,11.2208438 C19.2974063,11.2208438 20.32875,11.2711875 21.11325,10.3697812 L25.065375,5.750625 C25.0965938,5.7140625 25.1368125,5.68528125 25.18125,5.66746875 L27.7176563,4.65009375 C28.0784063,4.5054375 28.402875,4.27321875 28.6561875,3.97865625 L29.6136563,2.865375 C31.299,3.3135 32.9055,3.957 34.405875,4.77225 C34.381125,4.828875 33.1738125,9.816375 33.1738125,9.816375 C33.1708125,9.82903125 33.1599375,9.8385 33.1469063,9.8398125 L28.355625,10.3332188 C27.8848125,10.3817812 27.4360313,10.5872813 27.0920625,10.9120313 L23.9086875,13.9160625 C23.9050313,13.9194375 23.900625,13.9220625 23.8955625,13.9232813 L21.2924063,14.6249063 C20.443125,14.85375 19.8216563,15.5654063 19.7091563,16.43775 C19.5966563,17.3100938 20.0172188,18.156 20.7807188,18.5930625 C21.0718125,18.7595625 21.4026563,18.85725 21.7373438,18.875625 L30.408,19.350375 C30.4195313,19.3510313 30.42975,19.3580625 30.4344375,19.3686563 L30.72075,20.0095313 C30.72675,20.0228437 30.7224375,20.0387813 30.7104375,20.0473125 L27.6230625,22.2602812 C27.616875,22.2647812 27.6096563,22.26675 27.601875,22.2659063 L22.9335,21.7573125 L19.569375,20.353875 C18.8625937,20.0588438 18.0439687,20.1623437 17.4325312,20.6235 L13.9602187,23.2434375 C13.5055312,23.5865625 13.2084375,24.0857813 13.1237812,24.649125 L12.5549062,28.4308125 C12.4821562,28.9149375 12.5774062,29.4148125 12.8229375,29.8382812 L15.0844687,33.7377187 C15.4377187,34.3469062 16.0675312,34.7470312 16.7691562,34.8081562 L20.7444375,35.1539062 C20.7561562,35.1549375 20.7665625,35.1627187 20.7706875,35.1739687 L21.6404062,37.5095625 L22.5452812,41.6477812 C22.674,42.2361562 23.0459062,42.7482187 23.5655625,43.0528125 L25.5349687,44.2065 C25.8743437,44.4053437 26.2516875,44.5021875 26.6266875,44.5021875 C27.1802812,44.5021875 27.7290937,44.2909687 28.1438437,43.8845625 L31.180875,40.9077187 C31.5765,40.5199687 31.8064687,40.0018125 31.8285937,39.4485 L32.0265,34.4995313 C32.0266875,34.4938125 32.028375,34.4881875 32.0316562,34.4836875 L34.3123125,31.0266563 C34.8947812,30.1433437 34.7567812,28.9775625 33.9841875,28.25475 L32.5847812,26.9453437 C32.5772812,26.9383125 32.5738125,26.928 32.5754062,26.9177813 L32.7825937,25.6527187 C32.7842812,25.6425 32.785125,25.6363125 32.8005,25.6294688 C32.8154062,25.622625 32.8208437,25.6260938 32.82975,25.6317188 L35.5126875,27.3629062 C36.411,27.9425625 37.6174687,27.7715625 38.3191875,26.9646563 L39.314625,25.819875 C39.7798125,25.285125 39.953625,24.5556562 39.7797187,23.8686563 C39.6057187,23.1816563 39.1059375,22.6227188 38.4420937,22.3735313 L38.3663437,22.345125 C38.3565937,22.3414688 38.3517187,22.3382813 38.3515312,22.3382813 C38.345625,22.3302188 38.3443125,22.3060313 38.3483437,22.2981563 C38.3492812,22.2972188 38.3537812,22.2934688 38.362875,22.2886875 L39.9609375,21.4519687 C39.9715312,21.4464375 39.9842812,21.4474687 39.99375,21.4545938 L41.2742812,22.414875 C41.8564687,22.8515625 42.6133125,22.9664063 43.2988125,22.7222812 C43.9842187,22.47825 44.4980625,21.910875 44.6732812,21.2045625 L44.8876875,20.3404687 C44.8905,20.3288437 44.8999687,20.31975 44.911875,20.3175 L45.5350312,20.1976875 C45.7528125,21.4330312 45.867,22.7035312 45.867,24.0002812 C45.866625,36.057375 36.0572813,45.866625 24,45.866625 Z" id="Shape"></path>
          </g>
        </g>
      </g>
    </g>
  </g>
</svg>
