<svg xmlns="http://www.w3.org/2000/svg" width="512" height="512" viewBox="0 0 612 612"><path fill="#FFF" d="M595.924 3.752a294.687 294.687 0 0 0-141.547 78.677L352.019 184.787l-88.399-2.89-78.687 78.687 59.732 31.555-73.355 73.355-70.142-21.147-40.278 40.28 59.732 31.555-51.973 51.973-37.596-8.574L0 490.634 121.366 612l31.053-31.053-8.574-37.598 51.973-51.973 31.555 59.734 40.281-40.281-21.147-70.14 73.356-73.356 31.555 59.734 78.688-78.687-2.89-88.399 102.358-102.358a294.715 294.715 0 0 0 78.679-141.547L612 0l-16.076 3.752zM219.108 255.428l52.732-52.732 60.297 1.97-72.284 72.284-40.745-21.522zM95.065 379.474l11.933-11.933 47.842 14.423-19.033 19.033-40.742-21.523zM37.596 499.208l-8.573-8.574 8.522-8.524 13.964 3.185-13.913 13.913zm83.77 83.768l-8.574-8.574 13.912-13.912 3.185 13.964-8.523 8.522zm111.16-66.045l-21.524-40.743 19.033-19.033 14.423 47.844-11.932 11.932zm124.046-124.043l-21.524-40.743 72.284-72.284 1.97 60.297-52.73 52.73zM98.281 559.891l-15.832-15.83 24.404-24.404-14.509-14.511-24.406 24.404-15.83-15.83L442.59 123.236l46.172 46.172L98.281 559.891zm404.992-404.994l-46.172-46.172 10.554-10.554 46.172 46.172-10.554 10.554zm24.597-25.533L482.634 84.13c29.376-25.611 63.814-44.667 101.141-55.907a274.1 274.1 0 0 1-55.905 101.141zm-148.648 88.935l14.511 14.513-94.388 94.374-14.511-14.513 94.388-94.374zM204.465 393.038l14.511 14.513-46.282 46.276-14.511-14.513 46.282-46.276z"/></svg>