<svg xmlns="http://www.w3.org/2000/svg" xmlns:xlink="http://www.w3.org/1999/xlink" version="1.1" x="0px" y="0px" viewBox="0 0 13.5 11" style="enable-background:new 0 0 13.5 11;" xml:space="preserve"><g><path d="M11.7,11h-10C0.8,11,0,10.2,0,9.3V1.8C0,0.8,0.8,0,1.8,0h10c1,0,1.8,0.8,1.8,1.8v7.5C13.5,10.2,12.7,11,11.7,11z M1.8,1   C1.3,1,1,1.3,1,1.8v7.5C1,9.7,1.3,10,1.8,10h10c0.4,0,0.8-0.3,0.8-0.8V1.8c0-0.4-0.3-0.8-0.8-0.8H1.8z"></path></g><g><path d="M7.8,9C5.8,9,4.3,7.4,4.3,5.5C4.3,3.5,5.8,2,7.8,2c1.9,0,3.5,1.6,3.5,3.5C11.3,7.4,9.7,9,7.8,9z M7.8,3   C6.4,3,5.3,4.1,5.3,5.5S6.4,8,7.8,8s2.5-1.1,2.5-2.5S9.2,3,7.8,3z"></path></g><g><path d="M2.9,3.5H2.4C2.1,3.5,1.9,3.3,1.9,3V2.5C1.9,2.2,2.1,2,2.4,2h0.5c0.3,0,0.5,0.2,0.5,0.5V3C3.4,3.3,3.1,3.5,2.9,3.5z"></path></g></svg>