<svg xmlns="http://www.w3.org/2000/svg" width="512" height="512" viewBox="0 0 324.803 324.803"><path fill="#FFF" d="M200.317 88.717l35.109-15.932L234.842 0l-61.717 28.011.406 50.227a68.53 68.53 0 0 0-5.629-.671V12.56h-11v65.007a68.967 68.967 0 0 0-5.629.671l.405-50.227L89.96 0l-.583 72.785 35.109 15.932c-18.715 12.356-31.095 33.565-31.095 57.621v109.455c0 38.052 30.958 69.01 69.011 69.01s69.011-30.958 69.011-69.01V146.338c0-24.056-12.381-45.265-31.096-57.621zm-16.135-53.645l39.797-18.062.39 48.711-36.42 16.529a68.488 68.488 0 0 0-3.395-1.254l-.372-45.924zm-83.748 30.65l.39-48.711 39.797 18.062-.371 45.923c-1.146.39-2.278.807-3.396 1.255l-36.42-16.529zm61.968 22.605c26.346 0 48.632 17.661 55.678 41.761H106.724c7.046-24.1 29.331-41.761 55.678-41.761zm57.545 174.691h-115.09a58.205 58.205 0 0 1-.466-7.225v-72.282h116.021v72.282a58.218 58.218 0 0 1-.465 7.225zm-115.556-90.507v-10.213h116.021v10.213H104.391zm0-21.214v-4.959c0-1.771.093-3.519.249-5.25h115.524c.156 1.731.249 3.479.249 5.25v4.959H104.391zm58.011 162.506c-25.621 0-47.401-16.702-55.061-39.785h110.123c-7.661 23.082-29.441 39.785-55.062 39.785z"/></svg>