<svg xmlns="http://www.w3.org/2000/svg" viewBox="0 0 60 32">
    <g fill="#000" fill-rule="evenodd">
        <path d="M30 4.027c-7.168 0-13 5.832-13 13s5.832 13 13 13 13-5.832 13-13-5.832-13-13-13m0 28c-8.27 0-15-6.729-15-15 0-8.27 6.73-15 15-15 8.271 0 15 6.73 15 15 0 8.271-6.729 15-15 15"/>
        <path d="M30 9.027c-4.41 0-8 3.59-8 8 0 4.411 3.59 8 8 8 4.411 0 8-3.589 8-8 0-4.41-3.589-8-8-8m0 18c-5.514 0-10-4.486-10-10s4.486-10 10-10 10 4.486 10 10-4.486 10-10 10"/>
        <path d="M25 18.027a1 1 0 0 1-1-1c0-3.309 2.691-6 6-6a1 1 0 1 1 0 2c-2.206 0-4 1.794-4 4a1 1 0 0 1-1 1M8 6.027H2.6a1 1 0 1 1 0-2H8a1 1 0 1 1 0 2M9 10.027H4.2a1 1 0 1 1 0-2H9a1 1 0 1 1 0 2M11 14.027H5.8a1 1 0 1 1 0-2H11a1 1 0 1 1 0 2M57.4 6.027H52a1 1 0 1 1 0-2h5.4a1 1 0 1 1 0 2M55.8 10.027H51a1 1 0 1 1 0-2h4.8a1 1 0 1 1 0 2M54.2 14.027H49a1 1 0 1 1 0-2h5.2a1 1 0 1 1 0 2"/>
        <path d="M2.478 2.027l6.89 17.224a9.127 9.127 0 0 0 1.359 2.33A9.123 9.123 0 0 0 17.297 25 15.017 15.017 0 0 1 15 17.027c0-3.523 1.238-6.907 3.5-9.608l-3.08-5.392H2.478zm16.796 24.99h-1.391a11.12 11.12 0 0 1-8.717-4.184 11.157 11.157 0 0 1-1.656-2.839L.072 1.4a1.005 1.005 0 0 1 .1-.933C.359.192.668.027 1 .027h15a1 1 0 0 1 .869.504l3.722 6.516a.998.998 0 0 1-.134 1.174A12.955 12.955 0 0 0 17 17.027a13.01 13.01 0 0 0 3.04 8.347 1 1 0 0 1-.766 1.643zM41.5 7.419a14.93 14.93 0 0 1 3.5 9.608c0 2.829-.806 5.595-2.298 7.972a9.124 9.124 0 0 0 6.571-3.417 9.135 9.135 0 0 0 1.36-2.33l6.89-17.225H44.58L41.5 7.419zm.617 19.598h-1.39a1 1 0 0 1-.766-1.642 13.01 13.01 0 0 0 3.04-8.348c0-3.263-1.229-6.391-3.458-8.806a.998.998 0 0 1-.134-1.174L43.132.53c.178-.311.51-.504.868-.504h15a1 1 0 0 1 .93 1.372l-7.44 18.596a11.192 11.192 0 0 1-1.656 2.839 11.122 11.122 0 0 1-8.717 4.183z"/>
    </g>
</svg>
