<svg xmlns="http://www.w3.org/2000/svg" xmlns:xlink="http://www.w3.org/1999/xlink" version="1.1" x="0px" y="0px" viewBox="0 0 100 100" enable-background="new 0 0 100 100" xml:space="preserve"><path d="M77.9,76.6l-8.5-16.2c5.5-5.2,8.9-12.5,8.9-20.7c0-15.7-12.8-28.5-28.5-28.5c-15.7,0-28.5,12.8-28.5,28.5  c0,8.7,4,16.6,10.2,21.8l-7.9,15.1c-0.8,1.6-0.9,2.9-0.3,4c0.6,0.9,1.7,1.5,3,1.5c0,0,0.2,0,0.3,0c0.1,0,0.2,0,0.3,0l8.4-1.9l3,7.3  c0.9,2.3,2.3,2.8,3.2,2.8c1.8,0,2.9-1.7,3.4-2.5c0,0,0,0,0-0.1l6-11.4l6,11.4c0,0,0,0,0,0.1l0,0c0.4,0.8,1.5,2.5,3.3,2.5  c0.9,0,2.3-0.5,3.2-2.8l3-7.3l8.4,1.9c0.1,0,0.2,0,0.3,0c0,0,0.2,0,0.3,0c1.3,0,2.4-0.5,3-1.5C78.9,79.5,78.8,78.2,77.9,76.6z   M25.1,39.7c0-13.7,11.1-24.8,24.8-24.8c13.7,0,24.8,11.1,24.8,24.8c0,7.5-3.4,14.3-8.7,18.9c0,0,0,0,0,0c-3.4,2.9-7.4,4.8-11.7,5.6  c0,0-0.1,0-0.1,0c-0.1,0-0.2,0-0.3,0c0,0-0.1,0-0.1,0c-0.7,0.1-1.4,0.2-2,0.3c-0.6,0-1.2,0.1-1.9,0.1c-0.4,0-0.9,0-1.3-0.1  c-0.2,0-0.5,0-0.7-0.1c0,0-0.1,0-0.1,0c0,0,0,0-0.1,0c-0.6-0.1-1.2-0.1-1.7-0.2c-0.1,0-0.1,0-0.2,0c-0.6-0.1-1.1-0.2-1.7-0.3  c-0.1,0-0.1,0-0.2,0c-0.6-0.2-1.2-0.3-1.8-0.5c0,0-0.1,0-0.1,0c-2.5-0.8-4.8-2.1-7-3.7c0,0-0.1,0-0.1-0.1  C28.9,55,25.1,47.8,25.1,39.7z M50.8,68.2L50.8,68.2L50.8,68.2L50.8,68.2z M41.6,85.8l-3.5-8.5c-0.3-0.7-1-1.1-1.7-1.1  c-0.1,0-0.3,0-0.4,0l-9,2l7.6-14.4c2.2,1.4,4.6,2.5,7.2,3.3c0.1,0,0.2,0.1,0.3,0.1c0.5,0.1,1,0.3,1.5,0.4c0.1,0,0.2,0.1,0.3,0.1  c0.6,0.1,1.2,0.2,1.8,0.3c0.1,0,0.3,0,0.4,0.1c0.1,0,0.3,0,0.4,0.1l2.2,4.2L41.6,85.8z M65.6,76.2c-0.9-0.2-1.8,0.3-2.1,1.1L60,85.8  l-7.1-13.6l2.3-4.5c4.1-0.8,8-2.5,11.3-4.9c0,0,0,0,0,0l8,15.4L65.6,76.2z M49.9,54.1c7.9,0,14.3-6.4,14.3-14.3  c0-7.9-6.4-14.3-14.3-14.3c-7.9,0-14.3,6.4-14.3,14.3C35.5,47.6,42,54.1,49.9,54.1z M49.9,29.1c5.9,0,10.6,4.8,10.6,10.6  c0,5.9-4.8,10.6-10.6,10.6c-5.9,0-10.6-4.8-10.6-10.6C39.2,33.9,44,29.1,49.9,29.1z"></path></svg>