<svg xmlns="http://www.w3.org/2000/svg" viewBox="0 0 60 48">
    <g fill="#000" fill-rule="evenodd">
        <path d="M8 6.027H2.6a1 1 0 1 1 0-2H8a1 1 0 1 1 0 2M9 10.027H4.2a1 1 0 1 1 0-2H9a1 1 0 1 1 0 2M11 14.027H5.8a1 1 0 1 1 0-2H11a1 1 0 1 1 0 2M57.4 6.027H52a1 1 0 1 1 0-2h5.4a1 1 0 1 1 0 2M55.8 10.027H51a1 1 0 1 1 0-2h4.8a1 1 0 1 1 0 2M54.2 14.027H49a1 1 0 1 1 0-2h5.2a1 1 0 1 1 0 2M15.003 11.58a46.74 46.74 0 0 0 12.749 31.6L30 45.567l2.249-2.39A46.738 46.738 0 0 0 44.997 11.58L30 2.206 15.003 11.58zM30 48.026a1 1 0 0 1-.728-.315l-2.977-3.162C17.722 35.441 13 23.536 13 11.027a1 1 0 0 1 .47-.848l16-10a.999.999 0 0 1 1.06 0l16 10a1 1 0 0 1 .47.848c0 12.508-4.722 24.412-13.294 33.522l-2.977 3.163c-.19.201-.454.315-.729.315z"/>
        <path d="M19.085 13.745a42.907 42.907 0 0 0 10.913 25.97c6.478-7.23 10.313-16.373 10.917-25.97L30 6.923l-10.915 6.822zm10.946 28.412c-.274 0-.567-.079-.757-.278l-.067-.07a44.909 44.909 0 0 1-12.152-28.55 1.002 1.002 0 0 1 .468-.897L29.47 4.895a1.003 1.003 0 0 1 1.06 0l11.947 7.467c.306.193.486.535.468.898a44.919 44.919 0 0 1-12.152 28.548c-.188.2-.483.348-.759.35h-.003z"/>
        <path d="M2.477 2.027l6.89 17.224a9.127 9.127 0 0 0 5.54 5.257A48.71 48.71 0 0 1 13 11.028a1 1 0 0 1 .47-.849l5.823-3.639-3.761-4.513H2.477zM16.376 26.89a.939.939 0 0 1-.148-.01 11.134 11.134 0 0 1-8.718-6.886L.072 1.4a1.005 1.005 0 0 1 .1-.933C.359.192.668.027 1 .027h15c.297 0 .579.132.769.36l4.795 5.753a1.003 1.003 0 0 1-.238 1.49l-6.323 3.95a46.88 46.88 0 0 0 2.324 14 .999.999 0 0 1-.951 1.31zM40.707 6.54l5.823 3.64a1 1 0 0 1 .47.847c0 4.553-.64 9.08-1.906 13.481a9.092 9.092 0 0 0 4.18-2.926 9.14 9.14 0 0 0 1.36-2.33l6.89-17.225H44.468L40.707 6.54zm2.917 20.35a.999.999 0 0 1-.95-1.31 46.911 46.911 0 0 0 2.323-14l-6.322-3.952a.999.999 0 0 1-.239-1.488L43.231.387c.191-.228.472-.36.77-.36h15a.999.999 0 0 1 .928 1.371L52.49 19.994a11.138 11.138 0 0 1-8.718 6.885.922.922 0 0 1-.148.011z"/>
    </g>
</svg>
