<svg xmlns="http://www.w3.org/2000/svg" width="512" height="512" viewBox="0 0 313.986 313.986"><path fill="#FFF" d="M280.237 101.496c0-17.328-12.48-31.796-28.925-34.888.283-1.85.426-3.723.426-5.61 0-20.401-16.598-36.999-36.998-36.999a36.796 36.796 0 0 0-15.251 3.284C191.969 10.934 175.356 0 156.993 0c-18.362 0-34.977 10.933-42.497 27.283a36.772 36.772 0 0 0-15.25-3.284c-20.401 0-36.999 16.598-36.999 36.999 0 1.886.143 3.76.426 5.61-16.443 3.092-28.924 17.56-28.924 34.888 0 17.293 12.124 31.596 28.518 34.813-.013.396-.02.791-.02 1.186 0 20.401 16.598 36.999 36.999 36.999a37.015 37.015 0 0 0 22.972-8.005 46.78 46.78 0 0 0 10.653 8.788v39.249c-33.958 4.385-55.621 17.191-55.621 33.215 0 15.564 20.526 28.127 52.915 32.848a54.291 54.291 0 0 1-1.233 3.412 54.537 54.537 0 0 1-14.42 20.365 5.5 5.5 0 1 0 7.28 8.247c7.574-6.686 13.57-15.155 17.339-24.49a65.039 65.039 0 0 0 2.165-6.275 192.072 192.072 0 0 0 31.392 0 65.053 65.053 0 0 0 2.164 6.271c3.773 9.346 9.774 17.817 17.354 24.497a5.483 5.483 0 0 0 3.635 1.374 5.5 5.5 0 0 0 3.639-9.627 54.46 54.46 0 0 1-14.428-20.366 54.102 54.102 0 0 1-1.231-3.406c32.394-4.712 52.922-17.276 52.922-32.85 0-16.024-21.666-28.831-55.629-33.215v-39.247a46.736 46.736 0 0 0 10.657-8.79 37.008 37.008 0 0 0 22.972 8.006c20.4 0 36.998-16.598 36.998-36.999 0-.395-.007-.79-.02-1.186 16.392-3.218 28.516-17.521 28.516-34.814zM88.25 247.738c0-8.132 16.56-18.205 44.621-22.119v38.027c0 2.073-.129 4.126-.358 6.161-27.837-3.963-44.263-13.999-44.263-22.069zm137.49 0c0 8.077-16.428 18.115-44.271 22.071a55.066 55.066 0 0 1-.358-6.163v-38.027c28.066 3.914 44.629 13.987 44.629 22.119zm-55.206 23.247a185.64 185.64 0 0 1-27.085 0c.27-2.424.423-4.87.423-7.338V180.1a46.736 46.736 0 0 0 13.122 1.892c4.501 0 8.908-.66 13.118-1.891v83.545a65.76 65.76 0 0 0 .422 7.339zm74.956-145.012l-6.464.195 1.23 6.349c.319 1.649.481 3.323.481 4.977 0 14.335-11.663 25.999-25.998 25.999a26.03 26.03 0 0 1-19.467-8.775l-4.694-5.302-3.975 5.861a35.75 35.75 0 0 1-29.611 15.716 35.747 35.747 0 0 1-29.61-15.715l-3.975-5.862-4.695 5.303a26.024 26.024 0 0 1-19.467 8.775c-14.336 0-25.999-11.663-25.999-25.999 0-1.653.162-3.328.481-4.977l1.23-6.349-6.464-.195c-13.315-.401-23.746-11.153-23.746-24.478 0-13.508 10.99-24.499 24.475-24.498l8.134.084-2.623-7.412a25.961 25.961 0 0 1-1.487-8.672c0-14.335 11.663-25.999 25.999-25.999a25.81 25.81 0 0 1 14.963 4.746l6.307 4.45 2.147-7.413C127.062 21.602 141.179 11 156.993 11c15.814 0 29.931 10.602 34.328 25.782l2.148 7.413 6.306-4.45a25.828 25.828 0 0 1 14.965-4.746c14.335 0 25.998 11.663 25.998 25.999 0 2.966-.5 5.884-1.486 8.672l-2.623 7.412 7.861-.078.248-.007c13.509 0 24.499 10.99 24.499 24.499 0 13.324-10.431 24.076-23.747 24.477z"/></svg>