<svg xmlns="http://www.w3.org/2000/svg" xmlns:xlink="http://www.w3.org/1999/xlink" version="1.1" x="0px" y="0px" viewBox="0 0 24 24" style="enable-background:new 0 0 24 24;" xml:space="preserve"><g><path d="M20.447,19.687c0.792,0,1.437-0.645,1.437-1.437V7.422c0-0.792-0.645-1.437-1.437-1.437H3.553   c-0.792,0-1.437,0.645-1.437,1.437V18.25c0,0.792,0.645,1.437,1.437,1.437H20.447z M20.72,18.25c0,0.15-0.122,0.273-0.273,0.273   H3.553c-0.15,0-0.273-0.122-0.273-0.273V7.422c0-0.15,0.122-0.273,0.273-0.273h16.894c0.15,0,0.273,0.122,0.273,0.273V18.25z"></path><path d="M15.17,9.009c-2.033,0-3.687,1.654-3.687,3.687s1.654,3.687,3.687,3.687s3.687-1.654,3.687-3.687S17.203,9.009,15.17,9.009   z M15.17,15.219c-1.391,0-2.523-1.132-2.523-2.523s1.132-2.523,2.523-2.523s2.523,1.132,2.523,2.523S16.561,15.219,15.17,15.219z"></path><path d="M4.259,4.313c-0.321,0-0.582,0.261-0.582,0.582s0.261,0.582,0.582,0.582h3.084c0.321,0,0.582-0.261,0.582-0.582   S7.663,4.313,7.343,4.313H4.259z"></path></g></svg>