<svg xmlns="http://www.w3.org/2000/svg" viewBox="0 0 60 43">
    <g fill="#000" fill-rule="evenodd">
        <path d="M57.315 6.027H52a1 1 0 1 1 0-2h5.315a1 1 0 1 1 0 2M55.632 10.027H51a1 1 0 1 1 0-2h4.632a1 1 0 1 1 0 2M53.947 14.027H49a1 1 0 1 1 0-2h4.947a1 1 0 1 1 0 2M3.081 33.027h7.92v-2H9a1 1 0 0 1-1-1v-5H3.08l2.7 3.375c.292.365.292.885 0 1.25l-2.7 3.375zm8.92 2H1a1.001 1.001 0 0 1-.782-1.625l3.501-4.375-3.5-4.375A1.001 1.001 0 0 1 1 23.027h8a1 1 0 0 1 1 1v5h2a1 1 0 0 1 1 1v4a1 1 0 0 1-1 1zM49 33.027h7.919l-2.7-3.375a1.001 1.001 0 0 1 0-1.25l2.7-3.375H52v5a1 1 0 0 1-1 1h-2v2zm10 2H48a1 1 0 0 1-1-1v-4a1 1 0 0 1 1-1h2v-5a1 1 0 0 1 1-1h8a1.001 1.001 0 0 1 .781 1.625l-3.501 4.375 3.501 4.375A1.001 1.001 0 1 1 59 35.027z"/>
        <path d="M10 29.027h40v-8H10v8zm41 2H9a1 1 0 0 1-1-1v-10a1 1 0 0 1 1-1h42a1 1 0 0 1 1 1v10a1 1 0 0 1-1 1z"/>
        <path d="M19.485 19.027h21.03l5.824-11H13.661l5.824 11zm21.632 2H18.882a1 1 0 0 1-.883-.532l-6.883-13A1 1 0 0 1 12 6.027h36a1 1 0 0 1 .883 1.468l-6.882 13a1.001 1.001 0 0 1-.884.532z"/>
        <path d="M24.01 19.027h11.98l3.706-7H20.305l3.706 7zm12.582 2H23.408a1 1 0 0 1-.883-.532l-4.765-9a1 1 0 0 1 .884-1.468h22.713a1 1 0 0 1 .883 1.468l-4.764 9a1.001 1.001 0 0 1-.884.532z"/>
        <path d="M42.778 19.027h7.558l7.158-17H44.535l-2.667 4H48a1 1 0 0 1 .883 1.468l-6.105 11.532zm8.222 2h-9.883a1.001 1.001 0 0 1-.884-1.468L46.34 8.027H40a1 1 0 0 1-.832-1.555l4-6A1 1 0 0 1 44 .027h15a1.001 1.001 0 0 1 .922 1.388l-8 19c-.157.371-.52.612-.922.612zM8 6.027H2.685a1 1 0 1 1 0-2H8a1 1 0 1 1 0 2M9 10.027H4.368a1 1 0 1 1 0-2H9a1 1 0 1 1 0 2M11 14.027H6.053a1 1 0 1 1 0-2H11a1 1 0 1 1 0 2"/>
        <path d="M9.664 19.027h7.557L11.116 7.495A1 1 0 0 1 12 6.027h6.132l-2.667-4H2.506l7.158 17zm9.218 2H9a1 1 0 0 1-.922-.612l-8-19A1 1 0 0 1 1 .027h15c.334 0 .646.167.832.445l4 6A1.002 1.002 0 0 1 20 8.027h-6.339l6.105 11.532a1 1 0 0 1-.884 1.468zM25.838 31.058L30 38.92l4.162-7.862h-8.324zm4.162 11c-.37 0-.711-.205-.884-.532l-5.823-11a1 1 0 0 1 .884-1.468h11.646a1.001 1.001 0 0 1 .884 1.468l-5.823 11a1.001 1.001 0 0 1-.884.532z"/>
    </g>
</svg>
