<svg xmlns="http://www.w3.org/2000/svg" xmlns:xlink="http://www.w3.org/1999/xlink" version="1.1" x="0px" y="0px" viewBox="0 0 100 100" style="enable-background:new 0 0 100 100;" xml:space="preserve"><path d="M48.1,62.3l1.8-0.8l-8.3,17.7c-0.3,0.5-0.8,0.9-1.4,0.9c-0.1,0-0.2,0-0.3,0c-0.7-0.1-1.2-0.7-1.2-1.4l-0.4-9.1L31.1,75  c-0.6,0.4-1.3,0.4-1.8,0c-0.5-0.4-0.7-1.2-0.4-1.8l7.7-16.4l0.8,1.6c0.3,0.6,0.7,1,1.2,1.3l-4.4,9.2l4.7-3.5  c0.3-0.2,0.6-0.3,0.9-0.3c0.2,0,0.4,0,0.6,0.1c0.5,0.2,0.8,0.7,0.9,1.3l0.3,5.8l4.6-9.9c0.2,0,0.4,0.1,0.6,0.1  C47.2,62.6,47.6,62.5,48.1,62.3z M71.2,73.1l-7.7-16.4l-0.8,1.6c-0.3,0.5-0.7,1-1.2,1.3l4.4,9.2l-4.7-3.5c-0.4-0.3-1-0.4-1.5-0.2  c-0.5,0.2-0.8,0.7-0.9,1.3l-0.3,5.8l-4.6-9.9c-0.2,0-0.4,0.1-0.6,0.1c-0.5,0-1-0.1-1.4-0.3l-1.8-0.8l8.3,17.7  c0.3,0.5,0.8,0.9,1.4,0.9c0.1,0,0.2,0,0.3,0c0.7-0.1,1.2-0.7,1.2-1.4l0.4-9.1l7.2,5.5c0.6,0.4,1.3,0.4,1.8,0  C71.3,74.5,71.5,73.7,71.2,73.1z M52.7,60.4L50,59.2l-2.7,1.2c-0.2,0.1-0.4,0.1-0.6,0.1c-0.4,0-0.8-0.1-1-0.4l-2.1-2l-3,0.2  c-0.6,0-1.2-0.3-1.4-0.8l-1.3-2.7L35,54c-0.6-0.2-1-0.7-1.1-1.3l-0.3-2.9L31.2,48c-0.5-0.4-0.7-1-0.6-1.6l0.7-2.9l-1.6-2.5  c-0.3-0.5-0.3-1.2,0-1.7l1.6-2.5l-0.7-2.9c-0.1-0.6,0.1-1.2,0.6-1.6l2.4-1.8l0.3-2.9c0.1-0.6,0.5-1.1,1.1-1.3l2.8-0.8l1.3-2.7  c0.3-0.5,0.8-0.9,1.4-0.8l3,0.2l2.1-2c0.4-0.4,1.1-0.5,1.6-0.3l2.7,1.2l2.7-1.2c0.6-0.2,1.2-0.1,1.6,0.3l2.1,2l3-0.2  c0.6,0,1.2,0.3,1.4,0.8l1.3,2.7l2.8,0.8c0.6,0.2,1,0.7,1.1,1.3l0.3,2.9l2.4,1.8c0.5,0.4,0.7,1,0.6,1.6L68.7,37l1.6,2.5  c0.3,0.5,0.3,1.2,0,1.7l-1.6,2.5l0.7,2.9c0.1,0.6-0.1,1.2-0.6,1.6l-2.4,1.8l-0.3,2.9C66,53.3,65.6,53.8,65,54l-2.8,0.8l-1.3,2.7  c-0.3,0.5-0.8,0.9-1.4,0.8l-3-0.2l-2.1,2C53.9,60.6,53.3,60.7,52.7,60.4z M50.6,56.2l2.4,1.1l1.9-1.8c0.3-0.3,0.7-0.4,1.1-0.4  l2.6,0.2l1.2-2.3c0.2-0.4,0.5-0.7,0.9-0.8l2.5-0.7l0.3-2.6c0-0.4,0.3-0.8,0.6-1l2.1-1.5l-0.6-2.5c-0.1-0.4,0-0.8,0.2-1.2l1.4-2.2  l-1.4-2.2c-0.2-0.3-0.3-0.8-0.2-1.2l0.6-2.5l-2.1-1.5c-0.3-0.2-0.6-0.6-0.6-1l-0.3-2.6l-2.5-0.7c-0.4-0.1-0.7-0.4-0.9-0.8l-1.2-2.3  L56,25.5c-0.4,0-0.8-0.1-1.1-0.4L53,23.3l-2.4,1.1c-0.4,0.2-0.8,0.2-1.2,0L47,23.3l-1.9,1.8c-0.3,0.3-0.7,0.4-1.1,0.4l-2.6-0.2  l-1.2,2.3c-0.2,0.4-0.5,0.7-0.9,0.8l-2.5,0.7l-0.3,2.6c0,0.4-0.3,0.8-0.6,1l-2.1,1.5l0.6,2.5c0.1,0.4,0,0.8-0.2,1.2l-1.4,2.2  l1.4,2.2c0.2,0.3,0.3,0.8,0.2,1.2l-0.6,2.5l2.1,1.5c0.3,0.2,0.6,0.6,0.6,1l0.3,2.6l2.5,0.7c0.4,0.1,0.7,0.4,0.9,0.8l1.2,2.3l2.6-0.2  c0,0,0.1,0,0.1,0c0.4,0,0.8,0.1,1,0.4l1.9,1.8l2.4-1.1C49.8,56.1,50.2,56.1,50.6,56.2z"></path></svg>