<?xml version="1.0" encoding="UTF-8"?>
<svg width="248px" height="54px" viewBox="0 0 248 54" version="1.1" xmlns="http://www.w3.org/2000/svg" xmlns:xlink="http://www.w3.org/1999/xlink">
    <!-- Generator: Sketch 47.1 (45422) - http://www.bohemiancoding.com/sketch -->
    <title>logo</title>
    <desc>Created with Sketch.</desc>
    <defs></defs>
    <g id="Page-1" stroke="none" stroke-width="1" fill="none" fill-rule="evenodd">
        <g id="logo" fill-rule="nonzero">
            <g id="file" fill="#F9B91E">
                <polyline id="Fill-120" points="10.6047112 25 24.9996289 10.6059257 39.3952888 25 50 25 24.9996289 0 0 25 10.6047112 25"></polyline>
                <polygon id="Fill-121" points="40 46 10 46 10 31 2 31 2 53 48 53 48 31 40 31"></polygon>
                <polygon id="Fill-122" points="6 20 14 20 14 8 6 8"></polygon>
                <polygon id="Fill-122-Copy" points="20 35 30 35 30 25 20 25"></polygon>
            </g>
            <path d="M78.04,19.744 L82.122,19.744 L82.122,26.192 C80.3193243,28.2026767 77.8233493,29.208 74.634,29.208 C71.9646533,29.208 69.7243424,28.3240088 67.913,26.556 C66.1016576,24.7879912 65.196,22.5563468 65.196,19.861 C65.196,17.1656532 66.1189908,14.9166757 67.965,13.114 C69.8110092,11.3113243 72.0383203,10.41 74.647,10.41 C77.2556797,10.41 79.5219904,11.2679914 81.446,12.984 L79.34,16.026 C78.5253293,15.3153298 77.7756701,14.825668 77.091,14.557 C76.4063299,14.288332 75.6653373,14.154 74.868,14.154 C73.3253256,14.154 72.0253386,14.6783281 70.968,15.727 C69.9106614,16.7756719 69.382,18.1579914 69.382,19.874 C69.382,21.5900086 69.8889949,22.9636615 70.903,23.995 C71.9170051,25.0263385 73.125993,25.542 74.53,25.542 C75.934007,25.542 77.1039953,25.273336 78.04,24.736 L78.04,19.744 Z M100.478,16.858 C100.478,19.7700146 99.3253449,21.6506624 97.02,22.5 L101.622,29 L96.63,29 L92.6,23.202 L89.792,23.202 L89.792,29 L85.736,29 L85.736,10.826 L92.626,10.826 C95.4513475,10.826 97.4663273,11.3026619 98.671,12.256 C99.8756727,13.2093381 100.478,14.7433228 100.478,16.858 Z M95.59,19.016 C96.0926692,18.5653311 96.344,17.8503382 96.344,16.871 C96.344,15.8916618 96.0840026,15.2200018 95.564,14.856 C95.0439974,14.4919982 94.1340065,14.31 92.834,14.31 L89.792,14.31 L89.792,19.692 L92.756,19.692 C94.1426736,19.692 95.0873308,19.4666689 95.59,19.016 Z M117.742,10.826 L117.742,14.44 L108.694,14.44 L108.694,18.184 L116.832,18.184 L116.832,21.642 L108.694,21.642 L108.694,25.412 L118.028,25.412 L118.028,29 L104.638,29 L104.638,10.826 L117.742,10.826 Z M134.59,29 L132.9,25.074 L125.282,25.074 L123.592,29 L119.276,29 L127.128,10.826 L131.054,10.826 L138.906,29 L134.59,29 Z M129.104,16.234 L126.816,21.512 L131.366,21.512 L129.104,16.234 Z M148.708,14.336 L148.708,29 L144.652,29 L144.652,14.336 L139.504,14.336 L139.504,10.826 L153.856,10.826 L153.856,14.336 L148.708,14.336 Z" id="GREAT" fill="#595959"></path>
            <path d="M168.114,10.826 L172.17,10.826 L172.17,29 L168.114,29 L168.114,21.85 L160.886,21.85 L160.886,29 L156.83,29 L156.83,10.826 L160.886,10.826 L160.886,18.418 L168.114,18.418 L168.114,10.826 Z M188.992,15.662 C187.951995,14.5179943 186.673674,13.946 185.157,13.946 C183.640326,13.946 182.362005,14.5179943 181.322,15.662 C180.281995,16.8060057 179.762,18.1883252 179.762,19.809 C179.762,21.4296748 180.281995,22.807661 181.322,23.943 C182.362005,25.078339 183.640326,25.646 185.157,25.646 C186.673674,25.646 187.951995,25.078339 188.992,23.943 C190.032005,22.807661 190.552,21.4296748 190.552,19.809 C190.552,18.1883252 190.032005,16.8060057 188.992,15.662 Z M185.144,29.182 C182.45732,29.182 180.195343,28.285009 178.358,26.491 C176.520657,24.696991 175.602,22.4653467 175.602,19.796 C175.602,17.1266533 176.520657,14.895009 178.358,13.101 C180.195343,11.306991 182.45732,10.41 185.144,10.41 C187.83068,10.41 190.092657,11.306991 191.93,13.101 C193.767343,14.895009 194.686,17.1266533 194.686,19.796 C194.686,22.4653467 193.767343,24.696991 191.93,26.491 C190.092657,28.285009 187.83068,29.182 185.144,29.182 Z M205.658,25.568 C206.802006,25.568 207.707663,25.1476709 208.375,24.307 C209.042337,23.4663291 209.376,22.3180073 209.376,20.862 L209.376,10.826 L213.432,10.826 L213.432,20.992 C213.432,23.6266798 212.704007,25.6503263 211.248,27.063 C209.791993,28.4756737 207.928678,29.182 205.658,29.182 C203.387322,29.182 201.519674,28.4713404 200.055,27.05 C198.590326,25.6286596 197.858,23.6093464 197.858,20.992 L197.858,10.826 L201.914,10.826 L201.914,20.862 C201.914,22.3180073 202.251997,23.4663291 202.928,24.307 C203.604003,25.1476709 204.513994,25.568 205.658,25.568 Z M221.895,14.453 C221.504998,14.7736683 221.31,15.1983307 221.31,15.727 C221.31,16.2556693 221.548331,16.6759984 222.025,16.988 C222.501669,17.3000016 223.602325,17.6683312 225.327,18.093 C227.051675,18.5176688 228.390662,19.1546624 229.344,20.004 C230.297338,20.8533376 230.774,22.0926585 230.774,23.722 C230.774,25.3513415 230.163006,26.6729949 228.941,27.687 C227.718994,28.7010051 226.111343,29.208 224.118,29.208 C221.240652,29.208 218.649345,28.1420107 216.344,26.01 L218.762,23.046 C220.720676,24.7620086 222.531992,25.62 224.196,25.62 C224.941337,25.62 225.526331,25.4596683 225.951,25.139 C226.375669,24.8183317 226.588,24.3850027 226.588,23.839 C226.588,23.2929973 226.362669,22.8596683 225.912,22.539 C225.461331,22.2183317 224.568673,21.893335 223.234,21.564 C221.119323,21.0613308 219.572338,20.407004 218.593,19.601 C217.613662,18.794996 217.124,17.5296753 217.124,15.805 C217.124,14.0803247 217.74366,12.7500047 218.983,11.814 C220.22234,10.8779953 221.769324,10.41 223.624,10.41 C224.837339,10.41 226.050661,10.6179979 227.264,11.034 C228.477339,11.4500021 229.534662,12.0393295 230.436,12.802 L228.382,15.766 C226.804659,14.569994 225.175342,13.972 223.494,13.972 C222.817997,13.972 222.285002,14.1323317 221.895,14.453 Z M247.336,10.826 L247.336,14.44 L238.288,14.44 L238.288,18.184 L246.426,18.184 L246.426,21.642 L238.288,21.642 L238.288,25.412 L247.622,25.412 L247.622,29 L234.232,29 L234.232,10.826 L247.336,10.826 Z" id="HOUSE" fill="#F9B91E"></path>
            <path d="M73.7945,53 L72.8195,53 C72.7068328,53 72.6158337,52.9718336 72.5465,52.9155 C72.4771663,52.8591664 72.4251668,52.7876671 72.3905,52.701 L71.5195,50.452 L67.34,50.452 L66.469,52.701 C66.4386665,52.7790004 66.386667,52.848333 66.313,52.909 C66.239333,52.969667 66.1483339,53 66.04,53 L65.065,53 L68.7895,43.6855 L70.07,43.6855 L73.7945,53 Z M67.691,49.542 L71.1685,49.542 L69.706,45.7525 C69.6106662,45.5184988 69.5175005,45.2260018 69.4265,44.875 C69.3788331,45.0526676 69.3322502,45.2162493 69.28675,45.36575 C69.2412498,45.5152507 69.1968335,45.6463328 69.1535,45.759 L67.691,49.542 Z M75.621,43.6855 C75.7336672,43.6855 75.8170831,43.6995832 75.87125,43.72775 C75.9254169,43.7559168 75.9871663,43.8133329 76.0565,43.9 L81.4515,50.92 C81.4384999,50.8073328 81.4298334,50.6979172 81.4255,50.59175 C81.4211666,50.4855828 81.419,50.3826672 81.419,50.283 L81.419,43.6855 L82.524,43.6855 L82.524,53 L81.887,53 C81.7873328,53 81.703917,52.9826668 81.63675,52.948 C81.569583,52.9133332 81.5035003,52.8548337 81.4385,52.7725 L76.05,45.759 C76.0586667,45.8673339 76.0651666,45.9734995 76.0695,46.0775 C76.0738334,46.1815005 76.076,46.2768329 76.076,46.3635 L76.076,53 L74.971,53 L74.971,43.6855 L75.621,43.6855 Z M93.0475,43.6855 L93.0475,44.7125 L88.5755,44.7125 L88.5755,47.8065 L92.196,47.8065 L92.196,48.7945 L88.5755,48.7945 L88.5755,51.973 L93.0475,51.973 L93.0475,53 L87.308,53 L87.308,43.6855 L93.0475,43.6855 Z M99.632,45.1415 C99.5929998,45.2065003 99.5518335,45.2552498 99.5085,45.28775 C99.4651664,45.3202502 99.4088337,45.3365 99.3395,45.3365 C99.265833,45.3365 99.1802505,45.299667 99.08275,45.226 C98.9852495,45.152333 98.8617507,45.0710838 98.71225,44.98225 C98.5627493,44.8934162 98.3829177,44.812167 98.17275,44.7385 C97.9625823,44.664833 97.7080015,44.628 97.409,44.628 C97.1273319,44.628 96.8781678,44.6659163 96.6615,44.74175 C96.4448323,44.8175837 96.2639174,44.9204994 96.11875,45.0505 C95.9735826,45.1805006 95.864167,45.3332491 95.7905,45.50875 C95.716833,45.6842509 95.68,45.8738323 95.68,46.0775 C95.68,46.3375013 95.743916,46.5530825 95.87175,46.72425 C95.999584,46.8954175 96.1685823,47.0416661 96.37875,47.163 C96.5889177,47.2843339 96.8272487,47.3894162 97.09375,47.47825 C97.3602513,47.5670838 97.6332486,47.6591662 97.91275,47.7545 C98.1922514,47.8498338 98.4652487,47.9570827 98.73175,48.07625 C98.9982513,48.1954173 99.2365823,48.3459991 99.44675,48.528 C99.6569177,48.7100009 99.825916,48.9331653 99.95375,49.1975 C100.081584,49.4618347 100.1455,49.7868314 100.1455,50.1725 C100.1455,50.5798354 100.076167,50.9622482 99.9375,51.31975 C99.7988326,51.6772518 99.5962513,51.9881653 99.32975,52.2525 C99.0632487,52.5168347 98.7360853,52.7248326 98.34825,52.8765 C97.9604147,53.0281674 97.5195025,53.104 97.0255,53.104 C96.4231637,53.104 95.8739191,52.9945844 95.37775,52.77575 C94.8815809,52.5569156 94.4580018,52.2611685 94.107,51.8885 L94.471,51.2905 C94.5056668,51.2428331 94.5479164,51.2027502 94.59775,51.17025 C94.6475836,51.1377498 94.702833,51.1215 94.7635,51.1215 C94.8545005,51.1215 94.9584994,51.1702495 95.0755,51.26775 C95.1925006,51.3652505 95.3387491,51.4724994 95.51425,51.5895 C95.6897509,51.7065006 95.9020821,51.8137495 96.15125,51.91125 C96.4004179,52.0087505 96.7048315,52.0575 97.0645,52.0575 C97.3635015,52.0575 97.6299988,52.0163337 97.864,51.934 C98.0980012,51.8516663 98.2962492,51.7357507 98.45875,51.58625 C98.6212508,51.4367493 98.7458329,51.258001 98.8325,51.05 C98.9191671,50.841999 98.9625,50.6101679 98.9625,50.3545 C98.9625,50.0728319 98.898584,49.8420842 98.77075,49.66225 C98.642916,49.4824158 98.475001,49.3318339 98.267,49.2105 C98.058999,49.0891661 97.8217513,48.9862504 97.55525,48.90175 C97.2887487,48.8172496 97.0157514,48.7305838 96.73625,48.64175 C96.4567486,48.5529162 96.1837513,48.4500006 95.91725,48.333 C95.6507487,48.2159994 95.413501,48.0643343 95.2055,47.878 C94.997499,47.6916657 94.829584,47.4587514 94.70175,47.17925 C94.573916,46.8997486 94.51,46.5541687 94.51,46.1425 C94.51,45.813165 94.573916,45.4946682 94.70175,45.187 C94.829584,44.8793318 95.0148321,44.6063345 95.2575,44.368 C95.5001679,44.1296655 95.8002482,43.9390007 96.15775,43.796 C96.5152518,43.6529993 96.925831,43.5815 97.3895,43.5815 C97.9095026,43.5815 98.3839979,43.6638325 98.813,43.8285 C99.2420021,43.9931675 99.6168317,44.2314984 99.9375,44.5435 L99.632,45.1415 Z M108.095,43.6855 L108.095,44.745 L105.0855,44.745 L105.0855,53 L103.8245,53 L103.8245,44.745 L100.802,44.745 L100.802,43.6855 L108.095,43.6855 Z M117.0845,53 L116.1095,53 C115.996833,53 115.905834,52.9718336 115.8365,52.9155 C115.767166,52.8591664 115.715167,52.7876671 115.6805,52.701 L114.8095,50.452 L110.63,50.452 L109.759,52.701 C109.728667,52.7790004 109.676667,52.848333 109.603,52.909 C109.529333,52.969667 109.438334,53 109.33,53 L108.355,53 L112.0795,43.6855 L113.36,43.6855 L117.0845,53 Z M110.981,49.542 L114.4585,49.542 L112.996,45.7525 C112.900666,45.5184988 112.8075,45.2260018 112.7165,44.875 C112.668833,45.0526676 112.62225,45.2162493 112.57675,45.36575 C112.53125,45.5152507 112.486834,45.6463328 112.4435,45.759 L110.981,49.542 Z M124.605,43.6855 L124.605,44.745 L121.5955,44.745 L121.5955,53 L120.3345,53 L120.3345,44.745 L117.312,44.745 L117.312,43.6855 L124.605,43.6855 Z M131.6705,43.6855 L131.6705,44.7125 L127.1985,44.7125 L127.1985,47.8065 L130.819,47.8065 L130.819,48.7945 L127.1985,48.7945 L127.1985,51.973 L131.6705,51.973 L131.6705,53 L125.931,53 L125.931,43.6855 L131.6705,43.6855 Z M142.558,51.076 C142.627334,51.076 142.690166,51.1041664 142.7465,51.1605 L143.2405,51.7 C142.859165,52.1420022 142.396586,52.4864988 141.85275,52.7335 C141.308914,52.9805012 140.653504,53.104 139.8865,53.104 C139.21483,53.104 138.606003,52.9880845 138.06,52.75625 C137.513997,52.5244155 137.048169,52.1994188 136.6625,51.78125 C136.276831,51.3630812 135.977834,50.8615029 135.7655,50.2765 C135.553166,49.6914971 135.447,49.0480035 135.447,48.346 C135.447,47.6439965 135.560749,47.0005029 135.78825,46.4155 C136.015751,45.8304971 136.335331,45.3278354 136.747,44.9075 C137.158669,44.4871646 137.65158,44.1610845 138.22575,43.92925 C138.79992,43.6974155 139.433663,43.5815 140.127,43.5815 C140.81167,43.5815 141.402081,43.6876656 141.89825,43.9 C142.394419,44.1123344 142.835331,44.4004982 143.221,44.7645 L142.8115,45.343 C142.781167,45.3863336 142.7465,45.4220832 142.7075,45.45025 C142.6685,45.4784168 142.612167,45.4925 142.5385,45.4925 C142.482166,45.4925 142.422584,45.4719169 142.35975,45.43075 C142.296916,45.3895831 142.222167,45.338667 142.1355,45.278 C142.048833,45.217333 141.947001,45.1523337 141.83,45.083 C141.712999,45.0136663 141.574334,44.948667 141.414,44.888 C141.253666,44.827333 141.067334,44.7764169 140.855,44.73525 C140.642666,44.6940831 140.397835,44.6735 140.1205,44.6735 C139.622164,44.6735 139.166085,44.7590825 138.75225,44.93025 C138.338415,45.1014175 137.982001,45.3451651 137.683,45.6615 C137.383999,45.9778349 137.151084,46.3634977 136.98425,46.8185 C136.817416,47.2735023 136.734,47.7826638 136.734,48.346 C136.734,48.9266696 136.817416,49.4444977 136.98425,49.8995 C137.151084,50.3545023 137.378582,50.7390818 137.66675,51.05325 C137.954918,51.3674182 138.296165,51.6068325 138.6905,51.7715 C139.084835,51.9361675 139.509498,52.0185 139.9645,52.0185 C140.241835,52.0185 140.490999,52.0022502 140.712,51.96975 C140.933001,51.9372498 141.137749,51.8863337 141.32625,51.817 C141.514751,51.7476663 141.690249,51.6599172 141.85275,51.55375 C142.015251,51.4475828 142.178833,51.3208341 142.3435,51.1735 C142.417167,51.1084997 142.488666,51.076 142.558,51.076 Z M153.5495,48.346 C153.5495,49.0436702 153.439001,49.6839138 153.218,50.26675 C152.996999,50.8495862 152.685002,51.3511646 152.282,51.7715 C151.878998,52.1918354 151.394753,52.5179155 150.82925,52.74975 C150.263747,52.9815845 149.63867,53.0975 148.954,53.0975 C148.26933,53.0975 147.645336,52.9815845 147.082,52.74975 C146.518664,52.5179155 146.035502,52.1918354 145.6325,51.7715 C145.229498,51.3511646 144.917501,50.8495862 144.6965,50.26675 C144.475499,49.6839138 144.365,49.0436702 144.365,48.346 C144.365,47.6483298 144.475499,47.0080862 144.6965,46.42525 C144.917501,45.8424138 145.229498,45.3397521 145.6325,44.91725 C146.035502,44.4947479 146.518664,44.1665012 147.082,43.9325 C147.645336,43.6984988 148.26933,43.5815 148.954,43.5815 C149.63867,43.5815 150.263747,43.6984988 150.82925,43.9325 C151.394753,44.1665012 151.878998,44.4947479 152.282,44.91725 C152.685002,45.3397521 152.996999,45.8424138 153.218,46.42525 C153.439001,47.0080862 153.5495,47.6483298 153.5495,48.346 Z M152.256,48.346 C152.256,47.7739971 152.178001,47.2605023 152.022,46.8055 C151.865999,46.3504977 151.645001,45.9659182 151.359,45.65175 C151.072999,45.3375818 150.726335,45.0960008 150.319,44.927 C149.911665,44.7579992 149.456669,44.6735 148.954,44.6735 C148.455664,44.6735 148.002835,44.7579992 147.5955,44.927 C147.188165,45.0960008 146.840418,45.3375818 146.55225,45.65175 C146.264082,45.9659182 146.042001,46.3504977 145.886,46.8055 C145.729999,47.2605023 145.652,47.7739971 145.652,48.346 C145.652,48.9180029 145.729999,49.4304144 145.886,49.88325 C146.042001,50.3360856 146.264082,50.7195818 146.55225,51.03375 C146.840418,51.3479182 147.188165,51.5884158 147.5955,51.75525 C148.002835,51.9220842 148.455664,52.0055 148.954,52.0055 C149.456669,52.0055 149.911665,51.9220842 150.319,51.75525 C150.726335,51.5884158 151.072999,51.3479182 151.359,51.03375 C151.645001,50.7195818 151.865999,50.3360856 152.022,49.88325 C152.178001,49.4304144 152.256,48.9180029 152.256,48.346 Z M159.8545,49.633 C159.915167,49.7370005 159.96825,49.8464161 160.01375,49.96125 C160.05925,50.0760839 160.103666,50.1919994 160.147,50.309 C160.190334,50.1876661 160.235833,50.0717506 160.2835,49.96125 C160.331167,49.8507494 160.385333,49.7391672 160.446,49.6265 L163.5985,43.9 C163.654834,43.8003328 163.713333,43.7396668 163.774,43.718 C163.834667,43.6963332 163.921333,43.6855 164.034,43.6855 L164.9635,43.6855 L164.9635,53 L163.8585,53 L163.8585,46.1555 C163.8585,46.0644995 163.860667,45.9670005 163.865,45.863 C163.869333,45.7589995 163.875833,45.6528339 163.8845,45.5445 L160.693,51.3685 C160.584666,51.563501 160.433001,51.661 160.238,51.661 L160.056,51.661 C159.860999,51.661 159.709334,51.563501 159.601,51.3685 L156.338,45.525 C156.351,45.6376672 156.36075,45.7481661 156.36725,45.8565 C156.37375,45.9648339 156.377,46.0644995 156.377,46.1555 L156.377,53 L155.272,53 L155.272,43.6855 L156.2015,43.6855 C156.314167,43.6855 156.400833,43.6963332 156.4615,43.718 C156.522167,43.7396668 156.580666,43.8003328 156.637,43.9 L159.8545,49.633 Z M168.6165,49.516 L168.6165,53 L167.362,53 L167.362,43.6855 L170.1115,43.6855 C170.700836,43.6855 171.213248,43.7537493 171.64875,43.89025 C172.084252,44.0267507 172.444999,44.2206654 172.731,44.472 C173.017001,44.7233346 173.230416,45.0266649 173.37125,45.382 C173.512084,45.7373351 173.5825,46.1338311 173.5825,46.5715 C173.5825,47.0048355 173.506667,47.4013315 173.355,47.761 C173.203333,48.1206685 172.981251,48.4304987 172.68875,48.6905 C172.396249,48.9505013 172.033335,49.1530826 171.6,49.29825 C171.166664,49.4434174 170.670503,49.516 170.1115,49.516 L168.6165,49.516 Z M168.6165,48.515 L170.1115,48.515 C170.471168,48.515 170.788582,48.4673338 171.06375,48.372 C171.338918,48.2766662 171.569666,48.1434175 171.756,47.97225 C171.942334,47.8010825 172.083166,47.5963345 172.1785,47.358 C172.273834,47.1196655 172.3215,46.8575014 172.3215,46.5715 C172.3215,45.9778304 172.138418,45.5141683 171.77225,45.1805 C171.406082,44.8468317 170.852504,44.68 170.1115,44.68 L168.6165,44.68 L168.6165,48.515 Z M182.8385,53 L181.8635,53 C181.750833,53 181.659834,52.9718336 181.5905,52.9155 C181.521166,52.8591664 181.469167,52.7876671 181.4345,52.701 L180.5635,50.452 L176.384,50.452 L175.513,52.701 C175.482667,52.7790004 175.430667,52.848333 175.357,52.909 C175.283333,52.969667 175.192334,53 175.084,53 L174.109,53 L177.8335,43.6855 L179.114,43.6855 L182.8385,53 Z M176.735,49.542 L180.2125,49.542 L178.75,45.7525 C178.654666,45.5184988 178.5615,45.2260018 178.4705,44.875 C178.422833,45.0526676 178.37625,45.2162493 178.33075,45.36575 C178.28525,45.5152507 178.240834,45.6463328 178.1975,45.759 L176.735,49.542 Z M184.665,43.6855 C184.777667,43.6855 184.861083,43.6995832 184.91525,43.72775 C184.969417,43.7559168 185.031166,43.8133329 185.1005,43.9 L190.4955,50.92 C190.4825,50.8073328 190.473833,50.6979172 190.4695,50.59175 C190.465167,50.4855828 190.463,50.3826672 190.463,50.283 L190.463,43.6855 L191.568,43.6855 L191.568,53 L190.931,53 C190.831333,53 190.747917,52.9826668 190.68075,52.948 C190.613583,52.9133332 190.5475,52.8548337 190.4825,52.7725 L185.094,45.759 C185.102667,45.8673339 185.109167,45.9734995 185.1135,46.0775 C185.117833,46.1815005 185.12,46.2768329 185.12,46.3635 L185.12,53 L184.015,53 L184.015,43.6855 L184.665,43.6855 Z M197.431,49.295 L197.431,53 L196.1765,53 L196.1765,49.295 L192.764,43.6855 L193.869,43.6855 C193.981667,43.6855 194.0705,43.7136664 194.1355,43.77 C194.2005,43.8263336 194.256833,43.8956663 194.3045,43.978 L196.4365,47.5985 C196.523167,47.7501674 196.59575,47.893166 196.65425,48.0275 C196.71275,48.161834 196.765833,48.2939993 196.8135,48.424 C196.861167,48.289666 196.913166,48.155334 196.9695,48.021 C197.025834,47.886666 197.097333,47.7458341 197.184,47.5985 L199.3095,43.978 C199.3485,43.9086663 199.401583,43.8425836 199.46875,43.77975 C199.535917,43.7169164 199.623666,43.6855 199.732,43.6855 L200.85,43.6855 L197.431,49.295 Z" id="AN-ESTATE-COMPANY" fill="#B2B2B2"></path>
        </g>
    </g>
</svg>