<svg xmlns="http://www.w3.org/2000/svg" xmlns:xlink="http://www.w3.org/1999/xlink" viewBox="0 0 60 32" version="1.1" x="0px" y="0px"><title>Group 31</title><desc>Created with Sketch.</desc><g stroke="none" stroke-width="1" fill="none" fill-rule="evenodd"><g transform="translate(-1080.000000, -657.000000)"><g transform="translate(1080.000000, 657.000000)"><path d="M30.0001,4.0272 C22.8321,4.0272 17.0001,9.8592 17.0001,17.0272 C17.0001,24.1952 22.8321,30.0272 30.0001,30.0272 C37.1681,30.0272 43.0001,24.1952 43.0001,17.0272 C43.0001,9.8592 37.1681,4.0272 30.0001,4.0272 M30.0001,32.0272 C21.7291,32.0272 15.0001,25.2982 15.0001,17.0272 C15.0001,8.7562 21.7291,2.0272 30.0001,2.0272 C38.2711,2.0272 45.0001,8.7562 45.0001,17.0272 C45.0001,25.2982 38.2711,32.0272 30.0001,32.0272" fill="#000000"></path><path d="M30.0001,9.0272 C25.5891,9.0272 22.0001,12.6162 22.0001,17.0272 C22.0001,21.4382 25.5891,25.0272 30.0001,25.0272 C34.4111,25.0272 38.0001,21.4382 38.0001,17.0272 C38.0001,12.6162 34.4111,9.0272 30.0001,9.0272 M30.0001,27.0272 C24.4861,27.0272 20.0001,22.5412 20.0001,17.0272 C20.0001,11.5132 24.4861,7.0272 30.0001,7.0272 C35.5141,7.0272 40.0001,11.5132 40.0001,17.0272 C40.0001,22.5412 35.5141,27.0272 30.0001,27.0272" fill="#000000"></path><path d="M25.0001,18.0272 C24.4471,18.0272 24.0001,17.5792 24.0001,17.0272 C24.0001,13.7182 26.6911,11.0272 30.0001,11.0272 C30.5531,11.0272 31.0001,11.4752 31.0001,12.0272 C31.0001,12.5792 30.5531,13.0272 30.0001,13.0272 C27.7941,13.0272 26.0001,14.8212 26.0001,17.0272 C26.0001,17.5792 25.5531,18.0272 25.0001,18.0272" fill="#000000"></path><path d="M8.0001,6.0272 L2.6001,6.0272 C2.0471,6.0272 1.6001,5.5792 1.6001,5.0272 C1.6001,4.4752 2.0471,4.0272 2.6001,4.0272 L8.0001,4.0272 C8.5531,4.0272 9.0001,4.4752 9.0001,5.0272 C9.0001,5.5792 8.5531,6.0272 8.0001,6.0272" fill="#000000"></path><path d="M9.0001,10.0272 L4.2001,10.0272 C3.6471,10.0272 3.2001,9.5792 3.2001,9.0272 C3.2001,8.4752 3.6471,8.0272 4.2001,8.0272 L9.0001,8.0272 C9.5531,8.0272 10.0001,8.4752 10.0001,9.0272 C10.0001,9.5792 9.5531,10.0272 9.0001,10.0272" fill="#000000"></path><path d="M11.0001,14.0272 L5.8001,14.0272 C5.2471,14.0272 4.8001,13.5792 4.8001,13.0272 C4.8001,12.4752 5.2471,12.0272 5.8001,12.0272 L11.0001,12.0272 C11.5531,12.0272 12.0001,12.4752 12.0001,13.0272 C12.0001,13.5792 11.5531,14.0272 11.0001,14.0272" fill="#000000"></path><path d="M57.4005,6.0272 L52.0005,6.0272 C51.4475,6.0272 51.0005,5.5792 51.0005,5.0272 C51.0005,4.4752 51.4475,4.0272 52.0005,4.0272 L57.4005,4.0272 C57.9535,4.0272 58.4005,4.4752 58.4005,5.0272 C58.4005,5.5792 57.9535,6.0272 57.4005,6.0272" fill="#000000"></path><path d="M55.7999,10.0272 L50.9999,10.0272 C50.4469,10.0272 49.9999,9.5792 49.9999,9.0272 C49.9999,8.4752 50.4469,8.0272 50.9999,8.0272 L55.7999,8.0272 C56.3529,8.0272 56.7999,8.4752 56.7999,9.0272 C56.7999,9.5792 56.3529,10.0272 55.7999,10.0272" fill="#000000"></path><path d="M54.2003,14.0272 L49.0003,14.0272 C48.4473,14.0272 48.0003,13.5792 48.0003,13.0272 C48.0003,12.4752 48.4473,12.0272 49.0003,12.0272 L54.2003,12.0272 C54.7533,12.0272 55.2003,12.4752 55.2003,13.0272 C55.2003,13.5792 54.7533,14.0272 54.2003,14.0272" fill="#000000"></path><path d="M2.4776,2.0272 L9.3676,19.2512 C9.7036,20.0922 10.1606,20.8762 10.7266,21.5812 C12.3546,23.6122 14.7236,24.8372 17.2976,24.9992 C15.8056,22.6212 14.9996,19.8552 14.9996,17.0272 C14.9996,13.5042 16.2376,10.1202 18.4996,7.4192 L15.4196,2.0272 L2.4776,2.0272 Z M19.2736,27.0172 L17.8826,27.0172 C14.4746,27.0172 11.2976,25.4922 9.1656,22.8332 C8.4766,21.9732 7.9186,21.0182 7.5096,19.9942 L0.0716,1.3992 C-0.0514,1.0902 -0.0134,0.7412 0.1716,0.4662 C0.3586,0.1922 0.6676,0.0272 0.9996,0.0272 L15.9996,0.0272 C16.3586,0.0272 16.6906,0.2192 16.8686,0.5312 L20.5906,7.0472 C20.8076,7.4252 20.7526,7.9012 20.4566,8.2212 C18.2276,10.6362 16.9996,13.7632 16.9996,17.0272 C16.9996,20.0732 18.0796,23.0382 20.0396,25.3742 C20.2896,25.6722 20.3436,26.0872 20.1796,26.4402 C20.0156,26.7922 19.6626,27.0172 19.2736,27.0172 L19.2736,27.0172 Z" fill="#000000"></path><path d="M41.5001,7.4188 C43.7631,10.1208 45.0001,13.5038 45.0001,17.0268 C45.0001,19.8558 44.1941,22.6218 42.7021,24.9988 C45.2761,24.8368 47.6461,23.6118 49.2731,21.5818 C49.8401,20.8758 50.2971,20.0918 50.6331,19.2518 L57.5221,2.0268 L44.5801,2.0268 L41.5001,7.4188 Z M42.1171,27.0168 L40.7271,27.0168 C40.3381,27.0168 39.9841,26.7918 39.8201,26.4398 C39.6561,26.0868 39.7111,25.6718 39.9611,25.3748 C41.9211,23.0378 43.0001,20.0738 43.0001,17.0268 C43.0001,13.7638 41.7721,10.6358 39.5431,8.2208 C39.2471,7.9008 39.1921,7.4258 39.4091,7.0468 L43.1321,0.5308 C43.3101,0.2198 43.6421,0.0268 44.0001,0.0268 L59.0001,0.0268 C59.3321,0.0268 59.6421,0.1918 59.8281,0.4668 C60.0141,0.7418 60.0521,1.0908 59.9291,1.3988 L52.4901,19.9948 C52.0811,21.0178 51.5231,21.9728 50.8341,22.8338 C48.7021,25.4918 45.5251,27.0168 42.1171,27.0168 L42.1171,27.0168 Z" fill="#000000"></path></g></g></g></svg>