<svg xmlns="http://www.w3.org/2000/svg" xmlns:xlink="http://www.w3.org/1999/xlink" viewBox="0 0 60 48" version="1.1" x="0px" y="0px"><title>Group 27</title><desc>Created with Sketch.</desc><g stroke="none" stroke-width="1" fill="none" fill-rule="evenodd"><g transform="translate(-600.000000, -649.000000)" fill="#000000"><g transform="translate(600.000000, 649.000000)"><path d="M45.0001,37.0272 L45.0101,37.0272 L45.0001,37.0272 Z M16.0001,36.4922 L30.0001,45.8252 L44.0001,36.4922 L44.0001,12.0272 L41.0001,12.0272 C40.4481,12.0272 40.0001,11.5792 40.0001,11.0272 L40.0001,8.0272 L20.0001,8.0272 L20.0001,11.0272 C20.0001,11.5792 19.5521,12.0272 19.0001,12.0272 L16.0001,12.0272 L16.0001,36.4922 Z M30.0001,48.0272 C29.8071,48.0272 29.6131,47.9712 29.4451,47.8592 L14.4451,37.8592 C14.1671,37.6732 14.0001,37.3612 14.0001,37.0272 L14.0001,11.0272 C14.0001,10.4752 14.4481,10.0272 15.0001,10.0272 L18.0001,10.0272 L18.0001,7.0272 C18.0001,6.4752 18.4481,6.0272 19.0001,6.0272 L41.0001,6.0272 C41.5521,6.0272 42.0001,6.4752 42.0001,7.0272 L42.0001,10.0272 L45.0001,10.0272 C45.5521,10.0272 46.0001,10.4752 46.0001,11.0272 L46.0001,37.0272 C46.0001,37.3612 45.8331,37.6732 45.5551,37.8592 L30.5551,47.8592 C30.3871,47.9712 30.1931,48.0272 30.0001,48.0272 L30.0001,48.0272 Z"></path><path d="M20,34.3514 L30,41.0184 L40,34.3514 L40,16.0274 L37,16.0274 C36.448,16.0274 36,15.5794 36,15.0274 L36,12.0274 L24,12.0274 L24,15.0274 C24,15.5794 23.552,16.0274 23,16.0274 L20,16.0274 L20,34.3514 Z M30,43.2194 C29.807,43.2194 29.613,43.1634 29.445,43.0514 L18.445,35.7184 C18.167,35.5334 18,35.2214 18,34.8864 L18,15.0274 C18,14.4754 18.448,14.0274 19,14.0274 L22,14.0274 L22,11.0274 C22,10.4754 22.448,10.0274 23,10.0274 L37,10.0274 C37.552,10.0274 38,10.4754 38,11.0274 L38,14.0274 L41,14.0274 C41.552,14.0274 42,14.4754 42,15.0274 L42,34.8864 C42,35.2214 41.833,35.5334 41.555,35.7184 L30.555,43.0514 C30.387,43.1634 30.193,43.2194 30,43.2194 L30,43.2194 Z"></path><path d="M8,6.0272 L2.6,6.0272 C2.048,6.0272 1.6,5.5792 1.6,5.0272 C1.6,4.4752 2.048,4.0272 2.6,4.0272 L8,4.0272 C8.552,4.0272 9,4.4752 9,5.0272 C9,5.5792 8.552,6.0272 8,6.0272"></path><path d="M9,10.0272 L4.2,10.0272 C3.648,10.0272 3.2,9.5792 3.2,9.0272 C3.2,8.4752 3.648,8.0272 4.2,8.0272 L9,8.0272 C9.552,8.0272 10,8.4752 10,9.0272 C10,9.5792 9.552,10.0272 9,10.0272"></path><path d="M11,14.0272 L5.8,14.0272 C5.248,14.0272 4.8,13.5792 4.8,13.0272 C4.8,12.4752 5.248,12.0272 5.8,12.0272 L11,12.0272 C11.552,12.0272 12,12.4752 12,13.0272 C12,13.5792 11.552,14.0272 11,14.0272"></path><path d="M57.4005,6.0272 L52.0005,6.0272 C51.4475,6.0272 51.0005,5.5792 51.0005,5.0272 C51.0005,4.4752 51.4475,4.0272 52.0005,4.0272 L57.4005,4.0272 C57.9535,4.0272 58.4005,4.4752 58.4005,5.0272 C58.4005,5.5792 57.9535,6.0272 57.4005,6.0272"></path><path d="M55.7999,10.0272 L50.9999,10.0272 C50.4469,10.0272 49.9999,9.5792 49.9999,9.0272 C49.9999,8.4752 50.4469,8.0272 50.9999,8.0272 L55.7999,8.0272 C56.3529,8.0272 56.7999,8.4752 56.7999,9.0272 C56.7999,9.5792 56.3529,10.0272 55.7999,10.0272"></path><path d="M54.2003,14.0272 L49.0003,14.0272 C48.4473,14.0272 48.0003,13.5792 48.0003,13.0272 C48.0003,12.4752 48.4473,12.0272 49.0003,12.0272 L54.2003,12.0272 C54.7533,12.0272 55.2003,12.4752 55.2003,13.0272 C55.2003,13.5792 54.7533,14.0272 54.2003,14.0272"></path><path d="M42.0001,10.0272 L45.0001,10.0272 C45.5521,10.0272 46.0001,10.4752 46.0001,11.0272 L46.0001,24.4212 C48.1661,23.1532 49.9021,21.0772 50.9271,18.5172 L57.5231,2.0272 L44.5351,2.0272 L41.6871,6.3002 C41.8791,6.4822 42.0001,6.7402 42.0001,7.0272 L42.0001,10.0272 Z M45.0001,27.0172 C44.8051,27.0172 44.6111,26.9602 44.4441,26.8482 C44.1671,26.6622 44.0001,26.3512 44.0001,26.0172 L44.0001,12.0272 L41.0001,12.0272 C40.4481,12.0272 40.0001,11.5792 40.0001,11.0272 L40.0001,8.0272 C39.6311,8.0272 39.2921,7.8242 39.1181,7.4992 C38.9441,7.1732 38.9631,6.7792 39.1681,6.4722 L43.1681,0.4722 C43.3541,0.1942 43.6661,0.0272 44.0001,0.0272 L59.0001,0.0272 C59.3321,0.0272 59.6421,0.1922 59.8281,0.4662 C60.0141,0.7412 60.0521,1.0902 59.9291,1.3992 L52.7841,19.2602 C51.4991,22.4702 49.2291,25.0362 46.3941,26.4852 C46.0651,26.6532 45.7251,26.7992 45.3821,26.9412 C45.2591,26.9922 45.1291,27.0172 45.0001,27.0172 L45.0001,27.0172 Z"></path><path d="M2.4771,2.0272 L9.0731,18.5172 C10.0971,21.0772 11.8341,23.1532 14.0001,24.4212 L14.0001,11.0272 C14.0001,10.4752 14.4481,10.0272 15.0001,10.0272 L18.0001,10.0272 L18.0001,7.0272 C18.0001,6.7402 18.1211,6.4822 18.3131,6.3002 L15.4651,2.0272 L2.4771,2.0272 Z M15.0001,27.0172 C14.8711,27.0172 14.7411,26.9922 14.6181,26.9412 C14.2751,26.7992 13.9351,26.6532 13.6051,26.4852 C10.7691,25.0362 8.5001,22.4702 7.2161,19.2602 L0.0711,1.3992 C-0.0519,1.0902 -0.0139,0.7412 0.1721,0.4662 C0.3581,0.1922 0.6681,0.0272 1.0001,0.0272 L16.0001,0.0272 C16.3341,0.0272 16.6461,0.1942 16.8321,0.4722 L20.8321,6.4722 C21.0371,6.7792 21.0561,7.1732 20.8821,7.4992 C20.7071,7.8242 20.3691,8.0272 20.0001,8.0272 L20.0001,11.0272 C20.0001,11.5792 19.5521,12.0272 19.0001,12.0272 L16.0001,12.0272 L16.0001,26.0172 C16.0001,26.3512 15.8331,26.6622 15.5561,26.8482 C15.3891,26.9602 15.1951,27.0172 15.0001,27.0172 L15.0001,27.0172 Z"></path></g></g></g></svg>