<svg xmlns="http://www.w3.org/2000/svg" xmlns:xlink="http://www.w3.org/1999/xlink" viewBox="0 0 60 43" version="1.1" x="0px" y="0px"><title>Group 42</title><desc>Created with Sketch.</desc><g stroke="none" stroke-width="1" fill="none" fill-rule="evenodd"><g transform="translate(-1200.000000, -772.000000)"><g transform="translate(1200.000000, 772.000000)"><path d="M57.3154,6.0272 L52.0004,6.0272 C51.4474,6.0272 51.0004,5.5802 51.0004,5.0272 C51.0004,4.4742 51.4474,4.0272 52.0004,4.0272 L57.3154,4.0272 C57.8684,4.0272 58.3154,4.4742 58.3154,5.0272 C58.3154,5.5802 57.8684,6.0272 57.3154,6.0272" fill="#000000"></path><path d="M55.6318,10.0272 L50.9998,10.0272 C50.4468,10.0272 49.9998,9.5802 49.9998,9.0272 C49.9998,8.4742 50.4468,8.0272 50.9998,8.0272 L55.6318,8.0272 C56.1848,8.0272 56.6318,8.4742 56.6318,9.0272 C56.6318,9.5802 56.1848,10.0272 55.6318,10.0272" fill="#000000"></path><path d="M53.9473,14.0272 L49.0003,14.0272 C48.4473,14.0272 48.0003,13.5802 48.0003,13.0272 C48.0003,12.4742 48.4473,12.0272 49.0003,12.0272 L53.9473,12.0272 C54.5003,12.0272 54.9473,12.4742 54.9473,13.0272 C54.9473,13.5802 54.5003,14.0272 53.9473,14.0272" fill="#000000"></path><path d="M3.0811,33.0272 L11.0001,33.0272 L11.0001,31.0272 L9.0001,31.0272 C8.4471,31.0272 8.0001,30.5802 8.0001,30.0272 L8.0001,25.0272 L3.0811,25.0272 L5.7811,28.4022 C6.0731,28.7672 6.0731,29.2872 5.7811,29.6522 L3.0811,33.0272 Z M12.0001,35.0272 L1.0001,35.0272 C0.6151,35.0272 0.2661,34.8062 0.0991,34.4612 C-0.0669,34.1142 -0.0219,33.7032 0.2191,33.4022 L3.7201,29.0272 L0.2191,24.6522 C-0.0219,24.3512 -0.0669,23.9402 0.0991,23.5932 C0.2661,23.2482 0.6151,23.0272 1.0001,23.0272 L9.0001,23.0272 C9.5531,23.0272 10.0001,23.4742 10.0001,24.0272 L10.0001,29.0272 L12.0001,29.0272 C12.5531,29.0272 13.0001,29.4742 13.0001,30.0272 L13.0001,34.0272 C13.0001,34.5802 12.5531,35.0272 12.0001,35.0272 L12.0001,35.0272 Z" fill="#000000"></path><path d="M49,33.0272 L56.919,33.0272 L54.219,29.6522 C53.927,29.2872 53.927,28.7672 54.219,28.4022 L56.919,25.0272 L52,25.0272 L52,30.0272 C52,30.5802 51.553,31.0272 51,31.0272 L49,31.0272 L49,33.0272 Z M59,35.0272 L48,35.0272 C47.447,35.0272 47,34.5802 47,34.0272 L47,30.0272 C47,29.4742 47.447,29.0272 48,29.0272 L50,29.0272 L50,24.0272 C50,23.4742 50.447,23.0272 51,23.0272 L59,23.0272 C59.385,23.0272 59.734,23.2482 59.901,23.5932 C60.067,23.9402 60.021,24.3512 59.781,24.6522 L56.28,29.0272 L59.781,33.4022 C60.021,33.7032 60.067,34.1142 59.901,34.4612 C59.734,34.8062 59.385,35.0272 59,35.0272 L59,35.0272 Z" fill="#000000"></path><path d="M10,29.027 L50,29.027 L50,21.027 L10,21.027 L10,29.027 Z M51,31.027 L9,31.027 C8.447,31.027 8,30.58 8,30.027 L8,20.027 C8,19.474 8.447,19.027 9,19.027 L51,19.027 C51.553,19.027 52,19.474 52,20.027 L52,30.027 C52,30.58 51.553,31.027 51,31.027 L51,31.027 Z" fill="#000000"></path><path d="M19.4854,19.0272 L40.5144,19.0272 L46.3394,8.0272 L13.6614,8.0272 L19.4854,19.0272 Z M41.1174,21.0272 L18.8824,21.0272 C18.5124,21.0272 18.1724,20.8222 17.9994,20.4952 L11.1164,7.4952 C10.9524,7.1852 10.9624,6.8122 11.1434,6.5112 C11.3244,6.2112 11.6494,6.0272 12.0004,6.0272 L48.0004,6.0272 C48.3504,6.0272 48.6754,6.2112 48.8564,6.5112 C49.0384,6.8122 49.0474,7.1852 48.8834,7.4952 L42.0014,20.4952 C41.8284,20.8222 41.4874,21.0272 41.1174,21.0272 L41.1174,21.0272 Z" fill="#000000"></path><path d="M24.0107,19.0272 L35.9897,19.0272 L39.6957,12.0272 L20.3047,12.0272 L24.0107,19.0272 Z M36.5917,21.0272 L23.4077,21.0272 C23.0377,21.0272 22.6977,20.8222 22.5247,20.4952 L17.7597,11.4952 C17.5957,11.1852 17.6057,10.8112 17.7867,10.5112 C17.9677,10.2112 18.2927,10.0272 18.6437,10.0272 L41.3567,10.0272 C41.7067,10.0272 42.0317,10.2112 42.2127,10.5112 C42.3947,10.8112 42.4047,11.1852 42.2397,11.4952 L37.4757,20.4952 C37.3027,20.8222 36.9617,21.0272 36.5917,21.0272 L36.5917,21.0272 Z" fill="#000000"></path><path d="M42.7783,19.0272 L50.3363,19.0272 L57.4943,2.0272 L44.5353,2.0272 L41.8683,6.0272 L48.0003,6.0272 C48.3503,6.0272 48.6753,6.2112 48.8563,6.5112 C49.0383,6.8122 49.0483,7.1852 48.8833,7.4952 L42.7783,19.0272 Z M51.0003,21.0272 L41.1173,21.0272 C40.7663,21.0272 40.4413,20.8432 40.2603,20.5432 C40.0793,20.2422 40.0693,19.8692 40.2333,19.5592 L46.3393,8.0272 L40.0003,8.0272 C39.6313,8.0272 39.2923,7.8242 39.1183,7.4992 C38.9443,7.1732 38.9643,6.7792 39.1683,6.4722 L43.1683,0.4722 C43.3533,0.1942 43.6663,0.0272 44.0003,0.0272 L59.0003,0.0272 C59.3353,0.0272 59.6473,0.1952 59.8333,0.4742 C60.0183,0.7532 60.0513,1.1062 59.9223,1.4152 L51.9223,20.4152 C51.7653,20.7862 51.4023,21.0272 51.0003,21.0272 L51.0003,21.0272 Z" fill="#000000"></path><path d="M8,6.0272 L2.685,6.0272 C2.132,6.0272 1.685,5.5802 1.685,5.0272 C1.685,4.4742 2.132,4.0272 2.685,4.0272 L8,4.0272 C8.553,4.0272 9,4.4742 9,5.0272 C9,5.5802 8.553,6.0272 8,6.0272" fill="#000000"></path><path d="M9,10.0272 L4.368,10.0272 C3.815,10.0272 3.368,9.5802 3.368,9.0272 C3.368,8.4742 3.815,8.0272 4.368,8.0272 L9,8.0272 C9.553,8.0272 10,8.4742 10,9.0272 C10,9.5802 9.553,10.0272 9,10.0272" fill="#000000"></path><path d="M11,14.0272 L6.053,14.0272 C5.5,14.0272 5.053,13.5802 5.053,13.0272 C5.053,12.4742 5.5,12.0272 6.053,12.0272 L11,12.0272 C11.553,12.0272 12,12.4742 12,13.0272 C12,13.5802 11.553,14.0272 11,14.0272" fill="#000000"></path><path d="M9.6641,19.0272 L17.2211,19.0272 L11.1161,7.4952 C10.9521,7.1852 10.9621,6.8112 11.1431,6.5112 C11.3241,6.2112 11.6491,6.0272 12.0001,6.0272 L18.1321,6.0272 L15.4651,2.0272 L2.5061,2.0272 L9.6641,19.0272 Z M18.8821,21.0272 L9.0001,21.0272 C8.5981,21.0272 8.2341,20.7862 8.0781,20.4152 L0.0781,1.4152 C-0.0519,1.1062 -0.0189,0.7532 0.1671,0.4742 C0.3521,0.1952 0.6651,0.0272 1.0001,0.0272 L16.0001,0.0272 C16.3341,0.0272 16.6461,0.1942 16.8321,0.4722 L20.8321,6.4722 C21.0361,6.7792 21.0561,7.1732 20.8821,7.4992 C20.7081,7.8242 20.3691,8.0272 20.0001,8.0272 L13.6611,8.0272 L19.7661,19.5592 C19.9301,19.8692 19.9201,20.2432 19.7381,20.5432 C19.5581,20.8432 19.2321,21.0272 18.8821,21.0272 L18.8821,21.0272 Z" fill="#000000"></path><path d="M25.8379,31.0584 L29.9999,38.9204 L34.1619,31.0584 L25.8379,31.0584 Z M29.9999,42.0584 C29.6299,42.0584 29.2889,41.8534 29.1159,41.5264 L23.2929,30.5264 C23.1289,30.2164 23.1389,29.8424 23.3199,29.5424 C23.5009,29.2424 23.8259,29.0584 24.1769,29.0584 L35.8229,29.0584 C36.1739,29.0584 36.4989,29.2424 36.6799,29.5424 C36.8609,29.8424 36.8709,30.2164 36.7069,30.5264 L30.8839,41.5264 C30.7109,41.8534 30.3699,42.0584 29.9999,42.0584 L29.9999,42.0584 Z" fill="#000000"></path></g></g></g></svg>