<svg xmlns="http://www.w3.org/2000/svg" xmlns:xlink="http://www.w3.org/1999/xlink" viewBox="0 0 60 48" version="1.1" x="0px" y="0px"><title>Group 28</title><desc>Created with Sketch.</desc><g stroke="none" stroke-width="1" fill="none" fill-rule="evenodd"><g transform="translate(-720.000000, -649.000000)" fill="#000000"><g transform="translate(720.000000, 649.000000)"><path d="M8.0001,6.0272 L2.6001,6.0272 C2.0471,6.0272 1.6001,5.5792 1.6001,5.0272 C1.6001,4.4752 2.0471,4.0272 2.6001,4.0272 L8.0001,4.0272 C8.5531,4.0272 9.0001,4.4752 9.0001,5.0272 C9.0001,5.5792 8.5531,6.0272 8.0001,6.0272"></path><path d="M9.0001,10.0272 L4.2001,10.0272 C3.6471,10.0272 3.2001,9.5792 3.2001,9.0272 C3.2001,8.4752 3.6471,8.0272 4.2001,8.0272 L9.0001,8.0272 C9.5531,8.0272 10.0001,8.4752 10.0001,9.0272 C10.0001,9.5792 9.5531,10.0272 9.0001,10.0272"></path><path d="M11.0001,14.0272 L5.8001,14.0272 C5.2471,14.0272 4.8001,13.5792 4.8001,13.0272 C4.8001,12.4752 5.2471,12.0272 5.8001,12.0272 L11.0001,12.0272 C11.5531,12.0272 12.0001,12.4752 12.0001,13.0272 C12.0001,13.5792 11.5531,14.0272 11.0001,14.0272"></path><path d="M57.4005,6.0272 L52.0005,6.0272 C51.4475,6.0272 51.0005,5.5792 51.0005,5.0272 C51.0005,4.4752 51.4475,4.0272 52.0005,4.0272 L57.4005,4.0272 C57.9535,4.0272 58.4005,4.4752 58.4005,5.0272 C58.4005,5.5792 57.9535,6.0272 57.4005,6.0272"></path><path d="M55.7999,10.0272 L50.9999,10.0272 C50.4469,10.0272 49.9999,9.5792 49.9999,9.0272 C49.9999,8.4752 50.4469,8.0272 50.9999,8.0272 L55.7999,8.0272 C56.3529,8.0272 56.7999,8.4752 56.7999,9.0272 C56.7999,9.5792 56.3529,10.0272 55.7999,10.0272"></path><path d="M54.2003,14.0272 L49.0003,14.0272 C48.4473,14.0272 48.0003,13.5792 48.0003,13.0272 C48.0003,12.4752 48.4473,12.0272 49.0003,12.0272 L54.2003,12.0272 C54.7533,12.0272 55.2003,12.4752 55.2003,13.0272 C55.2003,13.5792 54.7533,14.0272 54.2003,14.0272"></path><path d="M15.003,11.5794 C15.141,23.3744 19.655,34.5774 27.752,43.1794 L30,45.5684 L32.249,43.1784 C40.346,34.5764 44.859,23.3734 44.997,11.5794 L30,2.2064 L15.003,11.5794 Z M30,48.0274 C29.725,48.0274 29.461,47.9134 29.272,47.7124 L26.295,44.5504 C17.722,35.4414 13,23.5364 13,11.0274 C13,10.6824 13.178,10.3624 13.47,10.1794 L29.47,0.1794 C29.794,-0.0236 30.206,-0.0236 30.53,0.1794 L46.53,10.1794 C46.822,10.3624 47,10.6824 47,11.0274 C47,23.5354 42.278,35.4394 33.706,44.5494 L30.729,47.7124 C30.539,47.9134 30.275,48.0274 30,48.0274 L30,48.0274 Z"></path><path d="M19.085,13.7454 C19.689,23.3694 23.544,32.5344 29.998,39.7144 C36.476,32.4844 40.311,23.3424 40.915,13.7454 L30,6.9234 L19.085,13.7454 Z M30.031,42.1574 C29.757,42.1574 29.464,42.0784 29.274,41.8794 C29.273,41.8784 29.208,41.8094 29.207,41.8084 C21.893,34.0374 17.577,23.8984 17.055,13.2594 C17.037,12.8974 17.217,12.5554 17.523,12.3624 L29.47,4.8954 C29.794,4.6934 30.206,4.6934 30.53,4.8954 L42.477,12.3624 C42.783,12.5554 42.963,12.8974 42.945,13.2604 C42.422,23.8984 38.106,34.0374 30.793,41.8084 C30.605,42.0084 30.31,42.1564 30.034,42.1574 L30.031,42.1574 Z"></path><path d="M2.4766,2.0272 L9.3676,19.2512 C9.7036,20.0922 10.1606,20.8762 10.7266,21.5812 C11.8186,22.9442 13.2666,23.9512 14.9066,24.5082 C13.6406,20.1072 12.9996,15.5802 12.9996,11.0272 C12.9996,10.6822 13.1776,10.3622 13.4696,10.1792 L19.2926,6.5402 L15.5316,2.0272 L2.4766,2.0272 Z M16.3756,26.8902 C16.3276,26.8902 16.2776,26.8872 16.2276,26.8792 C13.4296,26.4602 10.9206,25.0222 9.1656,22.8332 C8.4766,21.9732 7.9186,21.0182 7.5096,19.9942 L0.0716,1.3992 C-0.0514,1.0902 -0.0134,0.7412 0.1716,0.4662 C0.3586,0.1922 0.6676,0.0272 0.9996,0.0272 L15.9996,0.0272 C16.2966,0.0272 16.5786,0.1592 16.7686,0.3872 L21.5636,6.1402 C21.7476,6.3622 21.8286,6.6532 21.7826,6.9392 C21.7366,7.2242 21.5706,7.4752 21.3256,7.6292 L15.0026,11.5792 C15.0596,16.3202 15.8406,21.0272 17.3266,25.5802 C17.4346,25.9092 17.3636,26.2712 17.1396,26.5362 C16.9486,26.7622 16.6676,26.8902 16.3756,26.8902 L16.3756,26.8902 Z"></path><path d="M40.7071,6.5403 L46.5301,10.1793 C46.8221,10.3623 47.0001,10.6823 47.0001,11.0273 C47.0001,15.5803 46.3591,20.1073 45.0941,24.5083 C46.7331,23.9513 48.1821,22.9443 49.2731,21.5823 C49.8401,20.8753 50.2971,20.0923 50.6331,19.2513 L57.5231,2.0273 L44.4691,2.0273 L40.7071,6.5403 Z M43.6241,26.8903 C43.3321,26.8903 43.0521,26.7623 42.8601,26.5363 C42.6371,26.2713 42.5651,25.9093 42.6741,25.5803 C44.1591,21.0273 44.9401,16.3203 44.9971,11.5793 L38.6751,7.6283 C38.4301,7.4753 38.2641,7.2243 38.2181,6.9383 C38.1721,6.6533 38.2521,6.3623 38.4361,6.1403 L43.2311,0.3873 C43.4221,0.1593 43.7031,0.0273 44.0001,0.0273 L59.0001,0.0273 C59.3321,0.0273 59.6421,0.1913 59.8281,0.4663 C60.0141,0.7413 60.0521,1.0903 59.9291,1.3983 L52.4901,19.9943 C52.0811,21.0183 51.5231,21.9733 50.8341,22.8333 C49.0791,25.0223 46.5701,26.4593 43.7721,26.8793 C43.7231,26.8873 43.6731,26.8903 43.6241,26.8903 L43.6241,26.8903 Z"></path></g></g></g></svg>