<?xml version="1.0" encoding="UTF-8"?>
<svg width="20px" height="19px" viewBox="0 0 20 19" version="1.1" xmlns="http://www.w3.org/2000/svg" xmlns:xlink="http://www.w3.org/1999/xlink">
    <!-- Generator: Sketch 47.1 (45422) - http://www.bohemiancoding.com/sketch -->
    <title>star-half-empty</title>
    <desc>Created with Sketch.</desc>
    <defs></defs>
    <g id="Full-page" stroke="none" stroke-width="1" fill="none" fill-rule="evenodd">
        <g id="asam." transform="translate(-950.000000, -10994.000000)" fill-rule="nonzero" fill="#32BBCB">
            <g id="Testimonials" transform="translate(-1.000000, 10852.000000)">
                <g id="star-half-empty" transform="translate(951.000000, 142.000000)">
                    <path d="M19.9363942,7.23945378 C19.8645035,7.01945378 19.6484951,6.88147059 19.2889152,6.82554622 L13.2669405,5.94995798 L10.5680329,0.491764706 C10.3999657,0.163865546 10.2041253,0 9.98025978,0 C9.74836903,0 9.55240264,0.163865546 9.39252869,0.491764706 L6.69332701,5.94995798 L0.671310202,6.82554622 C0.311478269,6.88151261 0.0955118823,7.01945378 0.023621126,7.23945378 C-0.0481855967,7.45945378 0.0437051596,7.69735294 0.299545496,7.95327731 L4.66610012,12.1998319 L3.63446146,18.1976891 C3.5945455,18.4618067 3.61845306,18.6671429 3.70652029,18.8154202 C3.79441945,18.9634874 3.93046987,19.037395 4.11437743,19.037395 C4.25038583,19.037395 4.4103018,18.9894958 4.59420936,18.8931513 L9.98051188,16.0619748 L15.3666463,18.8931513 C15.5505539,18.9892017 15.7105959,19.037395 15.8466043,19.037395 C16.0306799,19.037395 16.1668564,18.9634874 16.2545455,18.8154202 C16.3422766,18.6671429 16.3662682,18.4618067 16.3263102,18.1976891 L15.2947556,12.1998319 L19.6489573,7.95327731 C19.9129909,7.69735294 20.0088732,7.45945378 19.9363942,7.23945378 Z M14.2267304,11.0961345 L13.6389152,11.660042 L13.7830329,12.4517647 L14.5026968,16.7104622 L10.6881589,14.6951261 L9.98025978,14.3230252 L9.98025978,2.7710084 L11.8876127,6.6337395 L12.2472346,7.35340336 L13.0392514,7.47340336 L17.3099236,8.09710084 L14.2267304,11.0961345 Z" id="Shape"></path>
                </g>
            </g>
        </g>
    </g>
</svg>